<svg xmlns="http://www.w3.org/2000/svg" aria-hidden="true" style="position:absolute;width:0;height:0;overflow:hidden">
  <defs>

    <symbol id="icon-logo" viewBox="0 0 207 32">
      <path d="M17.399 22.699H9.015l-1.344 3.968H1.943l8.128-22.464h6.336l8.128 22.464h-5.792l-1.344-3.968zm-1.408-4.224-2.784-8.224-2.752 8.224h5.536zm26.698 12.032-2.88-3.872c-.853.171-1.685.256-2.496.256-2.112 0-4.053-.491-5.824-1.472a11.19 11.19 0 0 1-4.192-4.096c-1.024-1.771-1.536-3.755-1.536-5.952s.512-4.171 1.536-5.92a11.19 11.19 0 0 1 4.192-4.096c1.771-.981 3.712-1.472 5.824-1.472s4.043.491 5.792 1.472a10.664 10.664 0 0 1 4.16 4.096c1.024 1.749 1.536 3.723 1.536 5.92 0 1.92-.395 3.68-1.184 5.28a10.732 10.732 0 0 1-3.232 3.936l4.928 5.92h-6.624zM31.361 15.371c0 1.984.533 3.573 1.6 4.768 1.088 1.173 2.539 1.76 4.352 1.76 1.792 0 3.221-.597 4.288-1.792 1.088-1.195 1.632-2.773 1.632-4.736 0-1.984-.544-3.563-1.632-4.736-1.067-1.195-2.496-1.792-4.288-1.792-1.813 0-3.264.587-4.352 1.76-1.067 1.173-1.6 2.763-1.6 4.768zM56.964 4.203v13.44c0 1.344.331 2.379.992 3.104s1.632 1.088 2.912 1.088 2.261-.363 2.944-1.088 1.024-1.76 1.024-3.104V4.203h5.472v13.408c0 2.005-.427 3.701-1.28 5.088s-2.005 2.432-3.456 3.136c-1.429.704-3.029 1.056-4.8 1.056s-3.36-.341-4.768-1.024c-1.387-.704-2.485-1.749-3.296-3.136-.811-1.408-1.216-3.115-1.216-5.12V4.203h5.472zm30.85 18.496H79.43l-1.344 3.968h-5.728l8.128-22.464h6.336l8.128 22.464h-5.792l-1.344-3.968zm-1.408-4.224-2.784-8.224-2.752 8.224h5.536zm26.858-14.272v4.384h-5.952v18.08h-5.472V8.587h-5.952V4.203h17.376zm13.882 22.464-4.672-8.48h-1.312v8.48h-5.472V4.203h9.184c1.771 0 3.275.309 4.512.928 1.259.619 2.197 1.472 2.816 2.56.619 1.067.928 2.261.928 3.584 0 1.493-.427 2.827-1.28 4-.832 1.173-2.069 2.005-3.712 2.496l5.184 8.896h-6.176zm-5.984-12.352h3.392c1.003 0 1.749-.245 2.24-.736.512-.491.768-1.184.768-2.08 0-.853-.256-1.525-.768-2.016-.491-.491-1.237-.736-2.24-.736h-3.392v5.568zm29.067 8.384h-8.384l-1.344 3.968h-5.728l8.128-22.464h6.336l8.128 22.464h-5.792l-1.344-3.968zm-1.408-4.224-2.784-8.224-2.752 8.224h5.536zm9.77-3.072c0-2.219.48-4.192 1.44-5.92.96-1.749 2.293-3.104 4-4.064 1.728-.981 3.68-1.472 5.856-1.472 2.667 0 4.949.704 6.848 2.112s3.168 3.328 3.808 5.76h-6.016c-.448-.939-1.088-1.653-1.92-2.144-.811-.491-1.739-.736-2.784-.736-1.685 0-3.051.587-4.096 1.76s-1.568 2.741-1.568 4.704c0 1.963.523 3.531 1.568 4.704s2.411 1.76 4.096 1.76c1.045 0 1.973-.245 2.784-.736.832-.491 1.472-1.205 1.92-2.144h6.016c-.64 2.432-1.909 4.352-3.808 5.76-1.899 1.387-4.181 2.08-6.848 2.08-2.176 0-4.128-.48-5.856-1.44-1.707-.981-3.04-2.336-4-4.064s-1.44-3.701-1.44-5.92zm38.006 11.264-7.552-9.92v9.92h-5.472V4.203h5.472v9.856l7.488-9.856h6.432l-8.704 11.008 9.024 11.456h-6.688z"/>
    </symbol>

    <symbol id="icon-radio" viewBox="0 0 32 32">
      <path stroke-width="2.4" d="M30.8 16c0 8.174-6.626 14.8-14.8 14.8S1.2 24.174 1.2 16 7.826 1.2 16 1.2 30.8 7.826 30.8 16z"/>
      <path d="M22.856 16a6.857 6.857 0 1 1-13.714 0 6.857 6.857 0 0 1 13.714 0z"/>
    </symbol>
    
    <symbol id="icon-clamation" viewBox="0 0 32 32">
      <path d="M13.474 18.545c.121 1.266.328 2.206.611 2.827.287.618.796.927 1.532.927.137 0 .261-.022.383-.047.125.025.247.047.386.047.734 0 1.244-.308 1.53-.927.285-.62.488-1.561.611-2.827l.653-9.771c.122-1.905.184-3.271.184-4.101 0-1.129-.295-2.01-.886-2.643-.593-.632-1.372-.948-2.337-.948-.052 0-.09.012-.14.014-.048-.002-.087-.014-.137-.014-.967 0-1.745.316-2.337.948s-.888 1.515-.888 2.643c0 .83.06 2.196.184 4.101l.652 9.77zm2.551 7.325c-.937 0-1.733.295-2.394.886s-.992 1.31-.992 2.153c0 .951.335 1.701 1 2.244.668.544 1.447.816 2.338.816.906 0 1.697-.268 2.373-.806.675-.536 1.012-1.289 1.012-2.254 0-.843-.323-1.561-.969-2.153s-1.436-.887-2.37-.887z"/>
    </symbol>

    <symbol id="icon-upload" viewBox="0 0 34 32">
      <path stroke-linecap="round" stroke-linejoin="round" stroke-width="2.88" d="M28.8 20v5.333A2.668 2.668 0 0 1 26.133 28H7.466a2.668 2.668 0 0 1-2.667-2.667V20M23.467 10.667 16.8 4l-6.667 6.667M16.8 4v16"/>
    </symbol>

    <symbol id="icon-cross" viewBox="0 0 32 32">
      <path stroke-linecap="round" stroke-linejoin="round" stroke-width="3.429" d="M24 8 8 24M8 8l16 16"/>
    </symbol>

    <symbol id="icon-log-out" viewBox="0 0 30 32">
      <path stroke-linecap="round" stroke-linejoin="round" stroke-width="2.824" d="M11.294 27.294h-5.02a2.509 2.509 0 0 1-2.51-2.51V7.215a2.509 2.509 0 0 1 2.51-2.51h5.02M20.078 22.274l6.274-6.275-6.274-6.274M26.353 16H11.294"/>
    </symbol>

    <symbol id="icon-settings" viewBox="0 0 30 32">
      <path stroke-linecap="round" stroke-linejoin="round" stroke-width="2.824" d="M15.059 19.765a3.765 3.765 0 1 0 0-7.53 3.765 3.765 0 0 0 0 7.53z"/>
      <path stroke-linecap="round" stroke-linejoin="round" stroke-width="2.824" d="M24.345 19.765a2.068 2.068 0 0 0 .414 2.283l.075.075a2.493 2.493 0 0 1 .736 1.775 2.511 2.511 0 0 1-4.288 1.776l-.075-.075a2.074 2.074 0 0 0-2.283-.414 2.07 2.07 0 0 0-1.255 1.895v.213a2.509 2.509 0 1 1-5.02 0v-.113a2.071 2.071 0 0 0-1.355-1.895 2.069 2.069 0 0 0-2.284.414l-.075.075a2.525 2.525 0 0 1-1.776.736 2.515 2.515 0 0 1-2.321-1.551 2.511 2.511 0 0 1 .545-2.737l.075-.075a2.074 2.074 0 0 0 .414-2.283 2.07 2.07 0 0 0-1.895-1.255h-.213a2.509 2.509 0 1 1 0-5.02h.113a2.071 2.071 0 0 0 1.895-1.355 2.069 2.069 0 0 0-.414-2.283l-.075-.075A2.525 2.525 0 0 1 4.547 8.1a2.515 2.515 0 0 1 1.551-2.321 2.515 2.515 0 0 1 2.737.545l.075.075a2.074 2.074 0 0 0 2.283.414h.1a2.07 2.07 0 0 0 1.255-1.895v-.213a2.509 2.509 0 1 1 5.02 0v.113a2.074 2.074 0 0 0 1.255 1.895 2.068 2.068 0 0 0 2.284-.414l.075-.075a2.493 2.493 0 0 1 1.775-.736 2.515 2.515 0 0 1 2.32 1.551 2.515 2.515 0 0 1-.545 2.737l-.075.075a2.074 2.074 0 0 0-.414 2.283v.1a2.07 2.07 0 0 0 1.895 1.255h.213a2.509 2.509 0 1 1 0 5.02h-.113a2.074 2.074 0 0 0-1.895 1.255z"/>
    </symbol>

    <symbol id="icon-part-of-cirlce" viewBox="0 0 32 32">
      <path stroke-linecap="round" stroke-linejoin="round" stroke-width="6.4" d="M3.2 5.76c0-.886 0-1.33.197-1.689.162-.296.467-.572.778-.704.377-.16.778-.12 1.581-.039a25.597 25.597 0 0 1 22.916 22.916c.08.802.121 1.204-.039 1.581a1.698 1.698 0 0 1-.704.778c-.359.197-.802.197-1.689.197H5.76c-.896 0-1.344 0-1.686-.174a1.596 1.596 0 0 1-.699-.699c-.174-.342-.174-.79-.174-1.686V5.761z"/>
    </symbol>

    <symbol id="icon-big-part-of-circle" viewBox="0 0 32 32">
      <path stroke-linecap="round" stroke-linejoin="round" stroke-width="3.556" d="M28.8 16c.492 0 .739 0 .938.109.165.09.318.26.391.432.089.209.067.432.022.878A14.223 14.223 0 1 1 14.58 1.848c.446-.045.669-.067.878.022a.942.942 0 0 1 .432.391c.109.2.109.446.109.938v11.378c0 .498 0 .747.097.937a.887.887 0 0 0 .388.388c.19.097.439.097.937.097h11.378z"/>
    </symbol>

    <symbol id="icon-chevron-right" viewBox="0 0 32 32">
      <path stroke-linecap="round" stroke-linejoin="round" stroke-width="3.556" d="m12 24 8-8-8-8"/>
    </symbol>

    <symbol id="icon-chevron-left" viewBox="0 0 32 32">
      <path stroke-linecap="round" stroke-linejoin="round" stroke-width="3.556" d="m20 24-8-8 8-8"/>
    </symbol>

    <symbol id="icon-plus-in-circle" viewBox="0 0 32 32">
      <path d="M16 0c8.837 0 16 7.163 16 16s-7.163 16-16 16S0 24.837 0 16 7.163 0 16 0z"/>
      <path stroke-linecap="round" stroke-linejoin="round" stroke-width="1.6" d="M16 10.286v11.429M10.286 16h11.429"/>
    </symbol>

    <symbol id="icon-chevron-down" viewBox="0 0 32 32">
      <path stroke-linecap="round" stroke-linejoin="round" stroke-width="3.2" d="m8 12 8 8 8-8"/>
    </symbol>

    <symbol id="icon-trash" viewBox="0 0 32 32">
      <path stroke-linecap="round" stroke-linejoin="round" stroke-width="3" d="M12 4h8"/>
      <path stroke-linecap="round" stroke-linejoin="round" stroke-width="3.6" d="M4 8h24m-2.667 0-.935 14.026c-.14 2.104-.21 3.156-.665 3.954a4.007 4.007 0 0 1-1.731 1.62c-.826.4-1.881.4-3.99.4h-4.025c-2.109 0-3.163 0-3.99-.4a4.001 4.001 0 0 1-1.731-1.62c-.455-.798-.525-1.85-.665-3.954L6.666 8"/>
    </symbol>

    <symbol id="icon-edit" viewBox="0 0 32 32">
      <path stroke-linecap="round" stroke-linejoin="round" stroke-width="3.6" d="M22.667 4a3.766 3.766 0 0 1 4.109-.817 3.781 3.781 0 0 1 2.041 2.04 3.779 3.779 0 0 1 0 2.886A3.756 3.756 0 0 1 28 9.332l-18 18-7.333 2 2-7.333 18-18z"/>
    </symbol>

    <symbol id="icon-glass-fill" viewBox="0 0 31 32">
      <path d="M26.955 5.226c-.095-.321-.254-.616-.468-.868s-.477-.452-.772-.589a2.087 2.087 0 0 0-.937-.21H6.562a1.83 1.83 0 0 0-.937.197c-.301.139-.57.345-.785.604a2.36 2.36 0 0 0-.468.866 2.392 2.392 0 0 0-.089.984l2.076 18.377a5.202 5.202 0 0 0 1.633 3.255 4.78 4.78 0 0 0 3.253 1.313h8.861a4.804 4.804 0 0 0 3.266-1.313 5.316 5.316 0 0 0 1.62-3.255l1.127-10.331v-.158l.873-7.876a2.724 2.724 0 0 0-.038-.998zM14.17 25.375h-1.266a3.573 3.573 0 0 1-2.215-.945 3.744 3.744 0 0 1-1.139-2.192l-.304-2.258c-.039-.344.053-.691.258-.965s.504-.455.835-.503.667.04.936.246.45.512.503.854l.304 2.232c.034.244.151.467.329.63a1 1 0 0 0 .646.276h1.266c.336 0 .658.138.895.384s.371.58.371.928-.133.682-.371.928a1.242 1.242 0 0 1-.895.384h-.152zm10.127-12.116c-2.671.538-4.949.643-7.367-1.313-3-2.455-6.633-1.667-10.127-.381L6.17 5.999a.41.41 0 0 1 0-.171.337.337 0 0 1 .089-.144.257.257 0 0 1 .127-.105.262.262 0 0 1 .152 0h18.38a.53.53 0 0 1 .127.105.314.314 0 0 1 .076.144.304.304 0 0 1 0 .184l-.823 7.246z"/>
    </symbol>
    <symbol id="icon-eye" viewBox="0 0 32 32">
      <path stroke-width="2.88" stroke-miterlimit="4" stroke-linecap="round" stroke-linejoin="round" d="M1.333 16c0 0 5.333-10.667 14.667-10.667s14.667 10.667 14.667 10.667c0 0-5.333 10.667-14.667 10.667s-14.667-10.667-14.667-10.667z"></path>
      <path stroke-width="2.88" stroke-miterlimit="4" stroke-linecap="round" stroke-linejoin="round" d="M16 20c2.209 0 4-1.791 4-4s-1.791-4-4-4c-2.209 0-4 1.791-4 4s1.791 4 4 4z"></path>
    </symbol>

    <symbol id="icon-eye-off" viewBox="0 0 32 32">
      <path stroke-linecap="round" stroke-linejoin="round" stroke-width="2.88" d="M23.92 23.92A13.43 13.43 0 0 1 16 26.667C6.667 26.667 1.333 16 1.333 16A24.605 24.605 0 0 1 8.08 8.08m5.12-2.427a12.161 12.161 0 0 1 2.8-.32C25.333 5.333 30.667 16 30.667 16a24.646 24.646 0 0 1-2.88 4.253m-8.961-1.426a4.01 4.01 0 0 1-2.855 1.273 3.978 3.978 0 0 1-1.569-.291 3.984 3.984 0 0 1-2.21-2.21 3.995 3.995 0 0 1 .983-4.424M1.333 1.334l29.333 29.333"/>
    </symbol>

    <symbol id="icon-ellipse" viewBox="0 0 32 32">
      <path d="M32 16c0 8.837-7.163 16-16 16S0 24.837 0 16 7.163 0 16 0s16 7.163 16 16z"/>
    </symbol>

    <symbol id="icon-ChevronUp" viewBox="0 0 53 32">
      <path stroke-linejoin="round" stroke-linecap="round" stroke-miterlimit="4" stroke-width="8" d="M5.333 26.667l21.333-21.333 21.333 21.333"></path>
    </symbol>
    <symbol id="icon-only-plus" viewBox="0 0 32 32">
      <path stroke-linecap="round" stroke-linejoin="round" stroke-width="2.667" d="M16 6.667v18.667M6.667 16h18.667"/>
    </symbol>
    
  </defs>
</svg>
