<?xml version="1.0" encoding="UTF-8" standalone="no"?> 
<svg height="512pt" viewBox="-61 0 512 512" width="512pt" xmlns="http://www.w3.org/2000/svg"><path d="m351 199-156-199-156 199c-25.5 33.898438-39 74.402344-39 117 0 109.5 85.5 196 195 196 107.402344 0 195-88.597656 195-196 0-42.597656-13.5-83.101562-39-117zm0 0" fill="#b3f2e7"/>
<path d="m390 316c0 107.402344-87.597656 196-195 196v-512l156 199c25.5 33.898438 39 74.402344 39 117zm0 0" fill="#73e6d3"/><path d="m210 241v-117.898438l-15 26.996094-100.5 180.902344h85.5v117.898438l15-26.996094 100.5-180.902344zm0 0" fill="#ffda2d"/><path d="m295.5 241-100.5 180.902344v-271.804688l15-26.996094v117.898438zm0 0" fill="#fdbf00"/></svg>