<svg xmlns="http://www.w3.org/2000/svg" aria-hidden="true" style="position:absolute;width:0;height:0;overflow:hidden">
  <defs>
    <symbol id="icon-logo" viewBox="0 0 207 32">
      <path d="M17.399 22.699H9.015l-1.344 3.968H1.943l8.128-22.464h6.336l8.128 22.464h-5.792l-1.344-3.968zm-1.408-4.224-2.784-8.224-2.752 8.224h5.536zm26.698 12.032-2.88-3.872c-.853.171-1.685.256-2.496.256-2.112 0-4.053-.491-5.824-1.472a11.19 11.19 0 0 1-4.192-4.096c-1.024-1.771-1.536-3.755-1.536-5.952s.512-4.171 1.536-5.92a11.19 11.19 0 0 1 4.192-4.096c1.771-.981 3.712-1.472 5.824-1.472s4.043.491 5.792 1.472a10.664 10.664 0 0 1 4.16 4.096c1.024 1.749 1.536 3.723 1.536 5.92 0 1.92-.395 3.68-1.184 5.28a10.732 10.732 0 0 1-3.232 3.936l4.928 5.92h-6.624zM31.361 15.371c0 1.984.533 3.573 1.6 4.768 1.088 1.173 2.539 1.76 4.352 1.76 1.792 0 3.221-.597 4.288-1.792 1.088-1.195 1.632-2.773 1.632-4.736 0-1.984-.544-3.563-1.632-4.736-1.067-1.195-2.496-1.792-4.288-1.792-1.813 0-3.264.587-4.352 1.76-1.067 1.173-1.6 2.763-1.6 4.768zM56.964 4.203v13.44c0 1.344.331 2.379.992 3.104s1.632 1.088 2.912 1.088 2.261-.363 2.944-1.088 1.024-1.76 1.024-3.104V4.203h5.472v13.408c0 2.005-.427 3.701-1.28 5.088s-2.005 2.432-3.456 3.136c-1.429.704-3.029 1.056-4.8 1.056s-3.36-.341-4.768-1.024c-1.387-.704-2.485-1.749-3.296-3.136-.811-1.408-1.216-3.115-1.216-5.12V4.203h5.472zm30.85 18.496H79.43l-1.344 3.968h-5.728l8.128-22.464h6.336l8.128 22.464h-5.792l-1.344-3.968zm-1.408-4.224-2.784-8.224-2.752 8.224h5.536zm26.858-14.272v4.384h-5.952v18.08h-5.472V8.587h-5.952V4.203h17.376zm13.882 22.464-4.672-8.48h-1.312v8.48h-5.472V4.203h9.184c1.771 0 3.275.309 4.512.928 1.259.619 2.197 1.472 2.816 2.56.619 1.067.928 2.261.928 3.584 0 1.493-.427 2.827-1.28 4-.832 1.173-2.069 2.005-3.712 2.496l5.184 8.896h-6.176zm-5.984-12.352h3.392c1.003 0 1.749-.245 2.24-.736.512-.491.768-1.184.768-2.08 0-.853-.256-1.525-.768-2.016-.491-.491-1.237-.736-2.24-.736h-3.392v5.568zm29.067 8.384h-8.384l-1.344 3.968h-5.728l8.128-22.464h6.336l8.128 22.464h-5.792l-1.344-3.968zm-1.408-4.224-2.784-8.224-2.752 8.224h5.536zm9.77-3.072c0-2.219.48-4.192 1.44-5.92.96-1.749 2.293-3.104 4-4.064 1.728-.981 3.68-1.472 5.856-1.472 2.667 0 4.949.704 6.848 2.112s3.168 3.328 3.808 5.76h-6.016c-.448-.939-1.088-1.653-1.92-2.144-.811-.491-1.739-.736-2.784-.736-1.685 0-3.051.587-4.096 1.76s-1.568 2.741-1.568 4.704c0 1.963.523 3.531 1.568 4.704s2.411 1.76 4.096 1.76c1.045 0 1.973-.245 2.784-.736.832-.491 1.472-1.205 1.92-2.144h6.016c-.64 2.432-1.909 4.352-3.808 5.76-1.899 1.387-4.181 2.08-6.848 2.08-2.176 0-4.128-.48-5.856-1.44-1.707-.981-3.04-2.336-4-4.064s-1.44-3.701-1.44-5.92zm38.006 11.264-7.552-9.92v9.92h-5.472V4.203h5.472v9.856l7.488-9.856h6.432l-8.704 11.008 9.024 11.456h-6.688z"/>
    </symbol>
  </defs>
</svg>
