<svg aria-hidden="true" style="position: absolute; width: 0; height: 0; overflow: hidden;" version="1.1" xmlns="http://www.w3.org/2000/svg" xmlns:xlink="http://www.w3.org/1999/xlink">
<defs>
<symbol id="icon-node-js" viewBox="0 0 32 32">
<path fill="#21a366" style="fill: var(--color1, #21a366)" d="M16.005 30.279c-0.383 0-0.762-0.1-1.097-0.293l-3.493-2.069c-0.522-0.292-0.267-0.395-0.095-0.455 0.696-0.243 0.837-0.299 1.579-0.721 0.078-0.045 0.18-0.029 0.26 0.019l2.684 1.593c0.097 0.053 0.235 0.053 0.324 0l10.465-6.041c0.097-0.055 0.16-0.167 0.16-0.283v-12.075c0-0.121-0.063-0.228-0.162-0.288l-10.46-6.036c-0.097-0.057-0.225-0.057-0.322 0l-10.459 6.035c-0.101 0.057-0.166 0.17-0.166 0.285v12.076c0 0.115 0.063 0.225 0.163 0.28l2.866 1.655c1.556 0.778 2.507-0.139 2.507-1.061v-11.918c0-0.17 0.133-0.301 0.304-0.301h1.325c0.165 0 0.301 0.131 0.301 0.301v11.924c0 2.075-1.131 3.267-3.099 3.267-0.605 0-1.082 0-2.413-0.655l-2.745-1.582c-0.679-0.393-1.098-1.127-1.098-1.91v-12.076c0-0.786 0.419-1.519 1.097-1.907l10.476-6.043c0.663-0.375 1.543-0.375 2.201 0l10.463 6.046c0.675 0.39 1.097 1.121 1.097 1.907v12.076c0 0.783-0.422 1.514-1.097 1.907l-10.463 6.043c-0.335 0.194-0.715 0.293-1.103 0.293z"></path>
<path fill="#21a366" style="fill: var(--color1, #21a366)" d="M19.237 21.958c-4.579 0-5.539-2.102-5.539-3.865 0-0.167 0.135-0.301 0.303-0.301h1.352c0.149 0 0.275 0.109 0.299 0.256 0.204 1.377 0.812 2.072 3.581 2.072 2.205 0 3.143-0.498 3.143-1.668 0-0.673-0.267-1.173-3.693-1.509-2.866-0.283-4.637-0.914-4.637-3.206 0-2.111 1.781-3.369 4.765-3.369 3.351 0 5.011 1.163 5.221 3.662 0.008 0.087-0.023 0.17-0.081 0.233-0.057 0.060-0.139 0.097-0.223 0.097h-1.359c-0.141 0-0.265-0.099-0.293-0.236-0.327-1.449-1.119-1.912-3.269-1.912-2.407 0-2.687 0.838-2.687 1.467 0 0.762 0.33 0.985 3.578 1.415 3.217 0.427 4.744 1.029 4.744 3.29 0 2.279-1.902 3.586-5.218 3.586z"></path>
</symbol>
<symbol id="icon-react" viewBox="0 0 32 32">
<path fill="#39c1d7" style="fill: var(--color2, #39c1d7)" d="M18.24 16c0 1.237-1.003 2.24-2.24 2.24s-2.24-1.003-2.24-2.24c0-1.237 1.003-2.24 2.24-2.24s2.24 1.003 2.24 2.24z"></path>
<path fill="#1f212b" style="fill: var(--color3, #1f212b)" d="M16 18.56c-1.412 0-2.56-1.148-2.56-2.56s1.148-2.56 2.56-2.56 2.56 1.148 2.56 2.56-1.148 2.56-2.56 2.56zM16 14.080c-1.059 0-1.92 0.861-1.92 1.92s0.861 1.92 1.92 1.92 1.92-0.861 1.92-1.92-0.861-1.92-1.92-1.92z"></path>
<path fill="#39c1d7" style="fill: var(--color2, #39c1d7)" d="M28.32 16c0-1.72-2.072-3.209-5.286-4.095 0.826-3.231 0.572-5.771-0.905-6.633-0.582-0.34-1.289-0.402-2.1-0.185-1.222 0.327-2.622 1.283-4.030 2.688-1.408-1.404-2.808-2.36-4.030-2.688-0.811-0.217-1.517-0.155-2.1 0.185-1.476 0.862-1.731 3.402-0.905 6.633-3.214 0.886-5.286 2.375-5.286 4.095s2.072 3.209 5.286 4.096c-0.826 3.231-0.572 5.771 0.905 6.633 0.356 0.208 0.758 0.312 1.202 0.312 0.283 0 0.582-0.042 0.898-0.127 1.222-0.327 2.622-1.283 4.030-2.688 1.408 1.404 2.808 2.36 4.030 2.688 0.316 0.084 0.615 0.127 0.898 0.127 0.444 0 0.846-0.104 1.202-0.312 1.476-0.862 1.731-3.403 0.905-6.633 3.214-0.886 5.286-2.375 5.286-4.096zM20.278 6.013c0.232-0.062 0.447-0.093 0.645-0.093 0.275 0 0.517 0.060 0.722 0.18 0.989 0.578 1.191 2.694 0.454 5.572-1.015-0.228-2.123-0.4-3.3-0.507-0.691-0.996-1.41-1.903-2.134-2.697 1.286-1.289 2.547-2.169 3.612-2.455zM19.442 18.016c-0.377 0.661-0.774 1.294-1.182 1.9-0.723 0.054-1.477 0.084-2.26 0.084s-1.537-0.030-2.26-0.084c-0.407-0.606-0.804-1.239-1.182-1.9-0.39-0.684-0.74-1.357-1.054-2.015 0.314-0.659 0.664-1.332 1.054-2.016 0.378-0.661 0.774-1.295 1.182-1.901 0.723-0.054 1.476-0.084 2.259-0.084s1.536 0.030 2.26 0.084c0.407 0.606 0.804 1.24 1.182 1.901 0.39 0.684 0.74 1.357 1.054 2.016-0.314 0.659-0.664 1.332-1.054 2.015zM21.006 17.134c0.333 0.788 0.608 1.546 0.831 2.266-0.728 0.162-1.514 0.298-2.353 0.398 0.269-0.424 0.535-0.858 0.791-1.307 0.26-0.454 0.502-0.907 0.731-1.357zM16 22.834c-0.524-0.579-1.046-1.22-1.556-1.913 0.509 0.025 1.028 0.039 1.556 0.039s1.047-0.014 1.556-0.039c-0.51 0.693-1.033 1.334-1.556 1.913zM12.516 19.798c-0.839-0.1-1.625-0.236-2.353-0.398 0.223-0.721 0.498-1.479 0.831-2.266 0.229 0.45 0.472 0.903 0.731 1.357 0.257 0.449 0.522 0.883 0.791 1.307zM10.994 14.866c-0.333-0.788-0.609-1.546-0.831-2.267 0.728-0.162 1.514-0.298 2.354-0.398-0.27 0.424-0.535 0.859-0.791 1.308-0.26 0.454-0.502 0.907-0.731 1.357zM16 9.166c0.524 0.579 1.046 1.22 1.556 1.913-0.509-0.025-1.028-0.039-1.556-0.039s-1.047 0.014-1.556 0.039c0.51-0.693 1.033-1.334 1.556-1.913zM20.275 13.509c-0.256-0.449-0.522-0.883-0.791-1.308 0.839 0.1 1.625 0.236 2.354 0.398-0.223 0.721-0.498 1.479-0.831 2.267-0.229-0.45-0.472-0.903-0.731-1.357zM10.355 6.1c0.205-0.12 0.447-0.18 0.722-0.18 0.198 0 0.413 0.031 0.645 0.093 1.065 0.285 2.327 1.166 3.612 2.454-0.724 0.794-1.443 1.701-2.134 2.697-1.177 0.106-2.285 0.278-3.3 0.507-0.737-2.877-0.535-4.994 0.454-5.571zM4.64 16c0-1.151 1.728-2.381 4.587-3.168 0.31 1.011 0.717 2.076 1.218 3.168-0.501 1.093-0.908 2.157-1.218 3.168-2.859-0.788-4.587-2.018-4.587-3.168zM11.722 25.987c-0.555 0.148-1.014 0.119-1.367-0.087-0.989-0.578-1.191-2.694-0.454-5.572 1.015 0.228 2.123 0.4 3.3 0.507 0.691 0.996 1.41 1.903 2.134 2.698-1.285 1.288-2.547 2.169-3.612 2.454zM21.645 25.9c-0.353 0.206-0.812 0.235-1.367 0.087-1.065-0.285-2.327-1.166-3.612-2.454 0.724-0.794 1.443-1.701 2.134-2.698 1.177-0.106 2.285-0.278 3.3-0.507 0.737 2.877 0.535 4.994-0.454 5.572zM22.773 19.168c-0.31-1.011-0.717-2.076-1.218-3.168 0.501-1.093 0.908-2.158 1.218-3.168 2.859 0.788 4.587 2.018 4.587 3.168s-1.728 2.381-4.587 3.168z"></path>
<path fill="#1f212b" style="fill: var(--color3, #1f212b)" d="M11.070 27.201c-0.471 0-0.901-0.112-1.28-0.334-1.482-0.866-1.851-3.288-1.017-6.66-3.341-0.95-5.253-2.479-5.253-4.207s1.912-3.257 5.253-4.207c-0.833-3.371-0.465-5.794 1.017-6.66 0.62-0.363 1.367-0.431 2.222-0.202 1.19 0.319 2.566 1.222 3.988 2.617 1.422-1.395 2.799-2.299 3.988-2.617 0.854-0.228 1.602-0.161 2.222 0.202 1.482 0.866 1.85 3.288 1.017 6.66 3.341 0.95 5.253 2.479 5.253 4.207s-1.912 3.257-5.253 4.207c0.833 3.371 0.465 5.794-1.017 6.66-0.617 0.36-1.372 0.429-2.222 0.202-1.19-0.319-2.567-1.222-3.988-2.617-1.422 1.395-2.798 2.299-3.988 2.617-0.327 0.088-0.644 0.132-0.94 0.132-0.001 0-0.001 0-0.002 0zM11.073 5.12c-0.416 0-0.792 0.097-1.122 0.29-1.352 0.789-1.662 3.203-0.83 6.455 0.021 0.084-0.028 0.171-0.113 0.194-3.236 0.892-5.168 2.366-5.168 3.941s1.932 3.049 5.168 3.941c0.084 0.023 0.134 0.109 0.113 0.194-0.832 3.253-0.522 5.666 0.83 6.455 0.33 0.192 0.706 0.29 1.119 0.29 0.001 0 0.001 0 0.002 0 0.268 0 0.556-0.041 0.857-0.121 1.167-0.313 2.536-1.228 3.958-2.646 0.062-0.062 0.164-0.062 0.226 0 1.422 1.419 2.791 2.333 3.958 2.646 0.766 0.204 1.435 0.148 1.978-0.169 1.352-0.789 1.662-3.203 0.83-6.455-0.021-0.084 0.028-0.171 0.113-0.194 3.236-0.892 5.168-2.366 5.168-3.941s-1.932-3.049-5.168-3.941c-0.084-0.023-0.134-0.109-0.113-0.194 0.832-3.253 0.521-5.666-0.83-6.455-0.544-0.318-1.209-0.374-1.978-0.169-1.167 0.313-2.536 1.228-3.958 2.646-0.062 0.062-0.164 0.062-0.226 0-1.422-1.419-2.791-2.334-3.958-2.646-0.301-0.081-0.587-0.121-0.855-0.121zM20.924 26.24c-0.212 0-0.441-0.033-0.687-0.098-1.066-0.286-2.34-1.148-3.684-2.496-0.060-0.060-0.062-0.158-0.005-0.221 0.725-0.795 1.438-1.697 2.121-2.681 0.027-0.039 0.070-0.064 0.117-0.068 1.156-0.104 2.259-0.274 3.28-0.503 0.084-0.019 0.169 0.032 0.19 0.116 0.748 2.919 0.545 5.123-0.529 5.749v0c-0.23 0.134-0.499 0.202-0.803 0.202zM16.887 23.527c1.264 1.246 2.449 2.042 3.433 2.306 0.512 0.137 0.931 0.113 1.245-0.070v0c0.914-0.534 1.074-2.583 0.418-5.244-0.969 0.211-2.009 0.369-3.094 0.469-0.645 0.925-1.318 1.779-2.002 2.539zM11.076 26.24c-0.304 0-0.572-0.067-0.803-0.201-1.074-0.627-1.276-2.83-0.529-5.75 0.021-0.084 0.107-0.134 0.19-0.116 1.020 0.23 2.124 0.399 3.28 0.503 0.047 0.004 0.090 0.029 0.117 0.068 0.683 0.984 1.396 1.886 2.121 2.681 0.058 0.063 0.055 0.16-0.005 0.221-1.345 1.347-2.619 2.21-3.684 2.496v0c-0.246 0.065-0.475 0.098-0.687 0.098zM10.017 20.518c-0.656 2.66-0.496 4.71 0.418 5.244 0.314 0.183 0.733 0.207 1.245 0.070v0c0.984-0.264 2.168-1.060 3.433-2.306-0.684-0.761-1.356-1.614-2.001-2.539-1.086-0.101-2.126-0.259-3.095-0.469zM16 22.994c-0.045 0-0.088-0.019-0.119-0.053-0.532-0.588-1.059-1.236-1.567-1.926-0.036-0.050-0.041-0.116-0.012-0.171s0.084-0.088 0.149-0.084c1.058 0.052 2.040 0.052 3.098 0 0.064-0.004 0.12 0.030 0.149 0.084s0.025 0.121-0.012 0.171c-0.508 0.689-1.035 1.337-1.567 1.926-0.030 0.034-0.074 0.053-0.119 0.053zM14.773 21.096c0.4 0.53 0.812 1.032 1.227 1.499 0.415-0.467 0.826-0.969 1.227-1.499-0.836 0.032-1.617 0.032-2.453 0zM16 20.16c-0.758 0-1.522-0.028-2.272-0.084-0.049-0.004-0.093-0.029-0.121-0.070-0.428-0.636-0.828-1.279-1.188-1.91-0.378-0.662-0.734-1.343-1.059-2.026-0.021-0.044-0.021-0.094 0-0.138 0.325-0.683 0.682-1.364 1.059-2.026 0.36-0.63 0.76-1.273 1.188-1.911 0.027-0.041 0.072-0.067 0.121-0.070 1.499-0.112 3.044-0.112 4.543 0 0.049 0.004 0.093 0.029 0.121 0.070 0.428 0.637 0.828 1.28 1.188 1.911 0.378 0.662 0.734 1.343 1.059 2.026 0.021 0.044 0.021 0.094 0 0.138-0.325 0.683-0.682 1.364-1.059 2.026v0c-0.36 0.631-0.76 1.274-1.188 1.91-0.027 0.041-0.072 0.067-0.121 0.070-0.749 0.056-1.514 0.084-2.272 0.084zM13.83 19.762c1.433 0.103 2.907 0.103 4.34 0 0.407-0.609 0.788-1.223 1.132-1.826 0.361-0.633 0.702-1.284 1.015-1.936-0.313-0.652-0.654-1.304-1.015-1.936-0.344-0.603-0.725-1.217-1.133-1.827-1.433-0.103-2.907-0.103-4.34 0-0.408 0.61-0.789 1.224-1.133 1.827-0.361 0.633-0.702 1.284-1.015 1.936 0.313 0.652 0.654 1.304 1.015 1.936 0.345 0.604 0.726 1.217 1.133 1.826zM19.484 19.959c-0.054 0-0.106-0.028-0.135-0.075-0.033-0.052-0.033-0.119 0-0.171 0.297-0.468 0.555-0.893 0.787-1.301 0.244-0.428 0.489-0.883 0.727-1.35 0.028-0.055 0.087-0.088 0.148-0.087 0.062 0.002 0.117 0.040 0.142 0.098 0.325 0.768 0.606 1.535 0.836 2.281 0.013 0.043 0.008 0.089-0.014 0.127s-0.060 0.066-0.104 0.076c-0.752 0.168-1.549 0.303-2.369 0.401-0.006 0.001-0.013 0.001-0.019 0.001zM20.991 17.514c-0.19 0.364-0.383 0.718-0.576 1.057-0.187 0.327-0.389 0.665-0.614 1.027 0.63-0.084 1.245-0.19 1.833-0.316-0.185-0.58-0.4-1.173-0.642-1.768zM12.516 19.959c-0.006 0-0.013-0-0.019-0.001-0.82-0.098-1.617-0.233-2.369-0.401-0.044-0.010-0.081-0.037-0.104-0.076s-0.028-0.085-0.014-0.127c0.23-0.746 0.512-1.514 0.836-2.281 0.024-0.057 0.080-0.095 0.142-0.098 0.058-0.006 0.12 0.032 0.148 0.087 0.238 0.468 0.483 0.922 0.727 1.35 0.233 0.408 0.491 0.833 0.787 1.301 0.033 0.052 0.033 0.119 0 0.171-0.029 0.047-0.081 0.075-0.135 0.075zM10.368 19.282c0.588 0.126 1.202 0.232 1.833 0.316-0.226-0.362-0.428-0.7-0.614-1.027-0.193-0.338-0.386-0.693-0.576-1.057-0.243 0.595-0.458 1.187-0.642 1.768zM22.773 19.328c-0.069 0-0.132-0.044-0.153-0.113-0.312-1.017-0.719-2.076-1.21-3.148-0.020-0.042-0.020-0.091 0-0.133 0.491-1.072 0.898-2.131 1.211-3.149 0.026-0.083 0.113-0.129 0.196-0.107 2.902 0.8 4.704 2.073 4.704 3.323s-1.803 2.523-4.705 3.323c-0.014 0.004-0.028 0.006-0.042 0.006zM21.731 16c0.46 1.010 0.846 2.009 1.148 2.972 2.63-0.75 4.321-1.909 4.321-2.972s-1.691-2.222-4.321-2.972c-0.303 0.964-0.689 1.963-1.148 2.972zM9.227 19.328c-0.014 0-0.028-0.002-0.043-0.006-2.902-0.8-4.705-2.073-4.705-3.323s1.803-2.523 4.705-3.323c0.083-0.022 0.17 0.024 0.196 0.107 0.312 1.018 0.72 2.077 1.211 3.149 0.020 0.042 0.020 0.091 0 0.133-0.491 1.072-0.898 2.131-1.21 3.148-0.021 0.069-0.084 0.113-0.153 0.113zM9.121 13.028c-2.63 0.75-4.321 1.909-4.321 2.972s1.691 2.222 4.321 2.972c0.303-0.964 0.689-1.962 1.148-2.972-0.459-1.009-0.845-2.008-1.148-2.972zM21.006 15.026c-0.060 0-0.115-0.034-0.143-0.087-0.242-0.476-0.48-0.918-0.727-1.35v0c-0.232-0.407-0.49-0.833-0.788-1.301-0.033-0.052-0.033-0.119-0-0.171s0.092-0.081 0.155-0.074c0.82 0.098 1.617 0.233 2.369 0.401 0.044 0.010 0.081 0.037 0.104 0.076s0.028 0.085 0.014 0.127c-0.231 0.748-0.512 1.515-0.836 2.282-0.024 0.057-0.080 0.095-0.142 0.098-0.003 0-0.004 0-0.006 0zM20.414 13.43c0.196 0.342 0.386 0.691 0.576 1.057 0.242-0.594 0.457-1.187 0.642-1.768-0.588-0.126-1.202-0.232-1.833-0.316 0.227 0.362 0.429 0.7 0.615 1.027v0zM10.994 15.026c-0.002 0-0.004 0-0.006 0-0.062-0.002-0.117-0.040-0.142-0.098-0.324-0.767-0.606-1.534-0.836-2.282-0.013-0.043-0.008-0.089 0.014-0.127s0.060-0.066 0.104-0.076c0.752-0.168 1.549-0.303 2.369-0.401 0.062-0.006 0.122 0.021 0.155 0.074s0.033 0.119-0 0.171c-0.298 0.468-0.555 0.894-0.788 1.301-0.247 0.432-0.485 0.874-0.727 1.35-0.028 0.053-0.083 0.087-0.143 0.087zM10.368 12.718c0.185 0.581 0.4 1.174 0.642 1.768 0.191-0.366 0.381-0.714 0.576-1.057 0.187-0.327 0.389-0.665 0.615-1.027-0.63 0.084-1.245 0.19-1.833 0.316zM22.1 11.832c-0.012 0-0.023-0.001-0.035-0.004-1.020-0.23-2.124-0.399-3.28-0.503-0.047-0.004-0.090-0.029-0.117-0.068-0.683-0.984-1.396-1.886-2.121-2.681-0.058-0.063-0.055-0.16 0.005-0.221 1.344-1.347 2.619-2.211 3.684-2.496v0c0.598-0.16 1.1-0.124 1.489 0.103 1.074 0.627 1.276 2.83 0.529 5.75-0.019 0.072-0.083 0.12-0.155 0.12zM18.888 11.012c1.086 0.101 2.126 0.259 3.095 0.469 0.656-2.66 0.496-4.71-0.418-5.244-0.313-0.183-0.733-0.207-1.245-0.070-0.984 0.264-2.169 1.060-3.433 2.306 0.684 0.76 1.356 1.613 2.002 2.539zM9.9 11.832c-0.072 0-0.136-0.048-0.155-0.12-0.748-2.919-0.545-5.122 0.529-5.749 0 0 0 0 0 0 0.389-0.227 0.892-0.263 1.489-0.103 1.066 0.286 2.34 1.149 3.684 2.496 0.060 0.060 0.062 0.158 0.005 0.221-0.724 0.795-1.438 1.697-2.121 2.681-0.027 0.039-0.070 0.064-0.117 0.068-1.156 0.104-2.26 0.274-3.28 0.503-0.012 0.003-0.023 0.004-0.035 0.004zM10.435 6.238c-0.914 0.534-1.074 2.584-0.418 5.244 0.969-0.211 2.009-0.369 3.095-0.469 0.645-0.926 1.318-1.779 2.001-2.539-1.264-1.246-2.449-2.042-3.433-2.306-0.51-0.136-0.93-0.112-1.245 0.071v0zM17.556 11.239c-0.003 0-0.005 0-0.008 0-1.058-0.052-2.039-0.052-3.097 0-0.066 0.002-0.12-0.030-0.149-0.084s-0.025-0.121 0.012-0.171c0.508-0.69 1.035-1.338 1.567-1.926 0.061-0.067 0.177-0.067 0.237 0 0.532 0.588 1.059 1.236 1.567 1.926 0.036 0.050 0.041 0.116 0.012 0.171-0.028 0.052-0.083 0.084-0.141 0.084zM16 10.88c0.397 0 0.809 0.008 1.227 0.025-0.401-0.53-0.812-1.033-1.227-1.499-0.414 0.466-0.826 0.969-1.227 1.499 0.418-0.016 0.829-0.025 1.227-0.025z"></path>
</symbol>
<symbol id="icon-javascript" viewBox="0 0 32 32">
<path fill="#ffd600" style="fill: var(--color4, #ffd600)" d="M4 28v-24h24v24h-24z"></path>
<path fill="#000001" style="fill: var(--color5, #000001)" d="M19.692 21.965c0.461 0.749 0.963 1.467 2.025 1.467 0.892 0 1.36-0.443 1.36-1.057 0-0.734-0.484-0.995-1.465-1.422l-0.538-0.229c-1.553-0.659-2.585-1.484-2.585-3.227 0-1.607 1.23-2.829 3.152-2.829 1.369 0 2.352 0.474 3.061 1.715l-1.676 1.071c-0.369-0.659-0.767-0.918-1.385-0.918-0.631 0-1.030 0.398-1.030 0.918 0 0.643 0.4 0.903 1.323 1.301l0.538 0.229c1.83 0.779 2.862 1.575 2.862 3.365 0 1.928-1.523 2.985-3.567 2.985-1.999 0-3.135-1.003-3.767-2.245l1.692-1.123zM11.968 22.019c0.337 0.604 0.85 1.069 1.587 1.069 0.705 0 1.111-0.279 1.111-1.362v-7.059h2.222v7.401c0 2.245-1.302 3.266-3.203 3.266-1.718 0-2.958-1.164-3.463-2.245l1.746-1.069z"></path>
</symbol>
<symbol id="icon-css" viewBox="0 0 32 32">
<path fill="#0277bd" style="fill: var(--color1, #0277bd)" d="M27.333 3.333h-22.667l2 22.667 9.333 2.667 9.333-2.667 2-22.667z"></path>
<path fill="#039be5" style="fill: var(--color2, #039be5)" d="M16 5.333v21.267l7.467-2.133 1.667-19.133z"></path>
<path fill="#fff" style="fill: var(--color3, #fff)" d="M22.067 8.667h-6.067v2.667h3.267l-0.2 2.667h-3.067v2.667h2.933l-0.2 3-2.733 0.933v2.8l5.267-1.733 0.467-7.667z"></path>
<path fill="#eee" style="fill: var(--color4, #eee)" d="M16 8.667v2.667h-5.933l-0.2-2.667h6.133zM12.933 14l0.133 2.667h2.933v-2.667h-3.067zM13.2 18h-2.667l0.2 3.667 5.267 1.733v-2.8l-2.733-0.933-0.067-1.667z"></path>
</symbol>
<symbol id="icon-html5" viewBox="0 0 32 32">
<path fill="#e65100" style="fill: var(--color10, #e65100)" d="M27.333 3.333h-22.667l2 22.667 9.333 2.667 9.333-2.667 2-22.667z"></path>
<path fill="#ff6d00" style="fill: var(--color11, #ff6d00)" d="M16 5.333v21.267l7.467-2.133 1.667-19.133z"></path>
<path fill="#fff" style="fill: var(--color8, #fff)" d="M16 16.667v-2.667h5.733l-0.467 7.667-5.267 1.733v-2.8l2.733-0.933 0.2-3h-2.933zM21.933 11.333l0.2-2.667h-6.133v2.667h5.933z"></path>
<path fill="#eee" style="fill: var(--color12, #eee)" d="M16 20.6v2.8l-5.267-1.733-0.267-3.667h2.667l0.133 1.667 2.733 0.933zM12.733 11.333h3.267v-2.667h-6.067l0.467 8h5.6v-2.667h-3.067l-0.2-2.667z"></path>
</symbol>
<symbol id="icon-swagger" viewBox="0 0 32 32">
<path fill="#173647" style="fill: var(--color1, #173647)" d="M97.635 19.224h-0.19v-1.002h-0.343v-0.163h0.876v0.163h-0.343v1.002z"></path>
<path fill="#173647" style="fill: var(--color1, #173647)" d="M98.741 19.224l-0.338-0.973h-0.006c0.009 0.144 0.014 0.28 0.014 0.406v0.567h-0.173v-1.165h0.268l0.323 0.927h0.005l0.333-0.927h0.269v1.165h-0.183v-0.576c0-0.058 0.001-0.133 0.004-0.226s0.005-0.149 0.008-0.169h-0.006l-0.35 0.971h-0.168z"></path>
<path fill="#85ea2d" style="fill: var(--color2, #85ea2d)" d="M13.69 26.568c-7.146 0-12.96-5.813-12.96-12.959s5.814-12.959 12.96-12.959 12.96 5.814 12.96 12.96-5.814 12.959-12.96 12.959z"></path>
<path fill="#173647" style="fill: var(--color1, #173647)" d="M13.69 1.297c6.799 0 12.311 5.512 12.311 12.311s-5.512 12.311-12.311 12.311c-6.799 0-12.311-5.512-12.311-12.311s5.512-12.311 12.311-12.311zM13.69 0c-7.504 0-13.608 6.105-13.608 13.608s6.105 13.608 13.608 13.608c7.504 0 13.608-6.105 13.608-13.608s-6.105-13.608-13.608-13.608v0z"></path>
<path fill="#173647" style="fill: var(--color1, #173647)" d="M8.651 9.209c-0.042 0.466 0.015 0.947-0.015 1.418-0.037 0.471-0.094 0.937-0.188 1.403-0.131 0.665-0.544 1.167-1.114 1.586 1.11 0.722 1.235 1.842 1.308 2.978 0.037 0.612 0.021 1.23 0.084 1.837 0.047 0.471 0.23 0.591 0.717 0.607 0.199 0.005 0.403 0 0.633 0v1.455c-1.439 0.246-2.627-0.162-2.92-1.381-0.094-0.445-0.157-0.9-0.178-1.361-0.032-0.487 0.021-0.973-0.016-1.46-0.105-1.335-0.277-1.784-1.554-1.847v-1.659c0.094-0.021 0.183-0.037 0.277-0.047 0.701-0.037 0.999-0.251 1.151-0.942 0.073-0.387 0.115-0.78 0.131-1.177 0.053-0.759 0.032-1.533 0.162-2.287 0.183-1.083 0.853-1.607 1.968-1.669 0.314-0.016 0.633 0 0.994 0v1.486c-0.152 0.011-0.283 0.031-0.419 0.031-0.905-0.032-0.953 0.277-1.021 1.031zM10.393 12.652h-0.021c-0.523-0.026-0.973 0.382-1 0.905-0.026 0.529 0.382 0.979 0.905 1.005h0.063c0.518 0.032 0.963-0.366 0.994-0.884v-0.052c0.011-0.529-0.413-0.963-0.942-0.973zM13.674 12.652c-0.508-0.016-0.932 0.382-0.947 0.884 0 0.032 0 0.058 0.005 0.089 0 0.57 0.387 0.937 0.973 0.937 0.576 0 0.937-0.377 0.937-0.968-0.005-0.57-0.388-0.947-0.968-0.942zM17.034 12.652c-0.534-0.011-0.979 0.413-0.994 0.947 0 0.534 0.429 0.963 0.963 0.963h0.011c0.481 0.084 0.968-0.382 1-0.942 0.026-0.518-0.445-0.968-0.979-0.968zM21.644 12.73c-0.607-0.026-0.911-0.23-1.062-0.806-0.094-0.366-0.152-0.748-0.173-1.125-0.042-0.701-0.037-1.408-0.084-2.109-0.11-1.664-1.313-2.245-3.061-1.957v1.444c0.277 0 0.492 0 0.706 0.005 0.372 0.005 0.654 0.147 0.691 0.56 0.037 0.377 0.037 0.759 0.073 1.141 0.073 0.759 0.115 1.528 0.246 2.276 0.115 0.617 0.539 1.078 1.067 1.455-0.926 0.623-1.198 1.512-1.245 2.512-0.026 0.685-0.042 1.376-0.078 2.067-0.032 0.628-0.251 0.832-0.884 0.848-0.178 0.005-0.351 0.021-0.549 0.032v1.481c0.372 0 0.712 0.021 1.052 0 1.057-0.063 1.695-0.576 1.905-1.601 0.089-0.565 0.141-1.135 0.157-1.706 0.036-0.523 0.032-1.052 0.084-1.57 0.078-0.811 0.45-1.146 1.261-1.198 0.079-0.011 0.152-0.026 0.225-0.052v-1.659c-0.136-0.016-0.231-0.031-0.33-0.037z"></path>
<path fill="#173647" style="fill: var(--color1, #173647)" d="M41.421 15.81c0 1.096-0.397 1.95-1.192 2.563s-1.874 0.92-3.236 0.92c-1.476 0-2.612-0.19-3.406-0.571v-1.397c0.511 0.216 1.067 0.386 1.669 0.511s1.198 0.187 1.788 0.187c0.965 0 1.692-0.183 2.18-0.549s0.732-0.876 0.732-1.529c0-0.431-0.087-0.785-0.26-1.060s-0.463-0.529-0.869-0.762c-0.406-0.233-1.023-0.497-1.852-0.792-1.158-0.414-1.986-0.906-2.482-1.473s-0.745-1.309-0.745-2.223c0-0.959 0.36-1.723 1.082-2.291s1.675-0.852 2.862-0.852c1.238 0 2.376 0.227 3.415 0.681l-0.452 1.261c-1.028-0.431-2.027-0.647-2.998-0.647-0.767 0-1.366 0.165-1.797 0.494s-0.647 0.787-0.647 1.371c0 0.431 0.079 0.785 0.238 1.060s0.427 0.528 0.805 0.758c0.378 0.23 0.955 0.484 1.733 0.762 1.306 0.466 2.204 0.965 2.696 1.499s0.737 1.227 0.737 2.078z"></path>
<path fill="#173647" style="fill: var(--color1, #173647)" d="M50.401 19.123l-1.712-5.476c-0.108-0.335-0.31-1.096-0.605-2.283h-0.068c-0.227 0.994-0.426 1.76-0.596 2.299l-1.763 5.459h-1.635l-2.546-9.334h1.482c0.602 2.345 1.060 4.131 1.375 5.357s0.495 2.052 0.541 2.478h0.068c0.062-0.323 0.163-0.742 0.302-1.256s0.26-0.921 0.362-1.222l1.712-5.357h1.533l1.669 5.357c0.318 0.977 0.534 1.797 0.647 2.461h0.068c0.023-0.204 0.084-0.52 0.183-0.945s0.691-2.717 1.776-6.873h1.465l-2.581 9.334h-1.677z"></path>
<path fill="#173647" style="fill: var(--color1, #173647)" d="M61.235 19.123l-0.281-1.329h-0.068c-0.466 0.585-0.93 0.981-1.392 1.188s-1.040 0.311-1.733 0.311c-0.925 0-1.651-0.238-2.176-0.715s-0.788-1.155-0.788-2.035c0-1.885 1.508-2.873 4.522-2.964l1.584-0.051v-0.579c0-0.732-0.157-1.273-0.473-1.622s-0.819-0.524-1.512-0.524c-0.778 0-1.658 0.239-2.64 0.715l-0.434-1.082c0.46-0.25 0.964-0.446 1.512-0.588s1.097-0.213 1.648-0.213c1.113 0 1.938 0.247 2.474 0.741s0.805 1.286 0.805 2.376v6.37h-1.048zM58.041 18.127c0.88 0 1.571-0.241 2.074-0.724s0.754-1.158 0.754-2.027v-0.843l-1.414 0.060c-1.124 0.040-1.935 0.214-2.432 0.524s-0.745 0.791-0.745 1.444c0 0.511 0.155 0.9 0.464 1.167s0.742 0.401 1.299 0.401z"></path>
<path fill="#173647" style="fill: var(--color1, #173647)" d="M71.975 9.789v0.894l-1.729 0.204c0.159 0.199 0.301 0.459 0.426 0.779s0.187 0.683 0.187 1.086c0 0.914-0.312 1.644-0.937 2.189s-1.482 0.818-2.572 0.818c-0.278 0-0.539-0.023-0.783-0.068-0.602 0.318-0.903 0.718-0.903 1.201 0 0.255 0.105 0.444 0.315 0.566s0.571 0.183 1.082 0.183h1.652c1.011 0 1.787 0.213 2.329 0.639s0.813 1.045 0.813 1.857c0 1.033-0.415 1.821-1.243 2.363s-2.038 0.813-3.628 0.813c-1.221 0-2.162-0.227-2.823-0.681s-0.992-1.096-0.992-1.925c0-0.568 0.181-1.059 0.545-1.473s0.874-0.696 1.533-0.843c-0.238-0.108-0.439-0.276-0.6-0.503s-0.243-0.491-0.243-0.792c0-0.341 0.091-0.639 0.273-0.894s0.468-0.502 0.86-0.741c-0.483-0.199-0.876-0.537-1.179-1.014s-0.456-1.022-0.456-1.635c0-1.022 0.307-1.81 0.92-2.363s1.482-0.83 2.606-0.83c0.488 0 0.928 0.057 1.32 0.17h3.228zM64.532 20.69c0 0.505 0.213 0.889 0.639 1.15s1.036 0.391 1.831 0.391c1.187 0 2.065-0.177 2.636-0.532s0.856-0.836 0.856-1.444c0-0.505-0.156-0.856-0.468-1.052s-0.9-0.294-1.763-0.294h-1.695c-0.642 0-1.141 0.153-1.499 0.46s-0.536 0.747-0.536 1.32zM65.298 12.778c0 0.653 0.184 1.147 0.554 1.482s0.883 0.502 1.542 0.502c1.38 0 2.070-0.67 2.070-2.010 0-1.402-0.698-2.104-2.095-2.104-0.664 0-1.175 0.179-1.533 0.537s-0.537 0.888-0.537 1.592z"></path>
<path fill="#173647" style="fill: var(--color1, #173647)" d="M81.37 9.789v0.894l-1.729 0.204c0.159 0.199 0.301 0.459 0.426 0.779s0.187 0.683 0.187 1.086c0 0.914-0.312 1.644-0.937 2.189s-1.482 0.818-2.572 0.818c-0.278 0-0.539-0.023-0.783-0.068-0.602 0.318-0.903 0.718-0.903 1.201 0 0.255 0.105 0.444 0.315 0.566s0.571 0.183 1.082 0.183h1.652c1.011 0 1.787 0.213 2.329 0.639s0.813 1.045 0.813 1.857c0 1.033-0.415 1.821-1.243 2.363s-2.038 0.813-3.628 0.813c-1.221 0-2.162-0.227-2.823-0.681s-0.992-1.096-0.992-1.925c0-0.568 0.181-1.059 0.545-1.473s0.874-0.696 1.533-0.843c-0.238-0.108-0.439-0.276-0.6-0.503s-0.243-0.491-0.243-0.792c0-0.341 0.091-0.639 0.273-0.894s0.468-0.502 0.86-0.741c-0.483-0.199-0.876-0.537-1.179-1.014s-0.456-1.022-0.456-1.635c0-1.022 0.307-1.81 0.92-2.363s1.482-0.83 2.606-0.83c0.488 0 0.928 0.057 1.32 0.17h3.228zM73.927 20.69c0 0.505 0.213 0.889 0.639 1.15s1.036 0.391 1.831 0.391c1.187 0 2.065-0.177 2.636-0.532s0.856-0.836 0.856-1.444c0-0.505-0.156-0.856-0.468-1.052s-0.9-0.294-1.763-0.294h-1.695c-0.642 0-1.141 0.153-1.499 0.46s-0.536 0.747-0.536 1.32zM74.693 12.778c0 0.653 0.184 1.147 0.554 1.482s0.883 0.502 1.542 0.502c1.38 0 2.070-0.67 2.070-2.010 0-1.402-0.698-2.104-2.095-2.104-0.664 0-1.175 0.179-1.533 0.537s-0.537 0.888-0.537 1.592z"></path>
<path fill="#173647" style="fill: var(--color1, #173647)" d="M86.169 19.293c-1.38 0-2.469-0.42-3.266-1.261s-1.197-2.007-1.197-3.5c0-1.505 0.371-2.7 1.111-3.585s1.736-1.329 2.985-1.329c1.17 0 2.095 0.385 2.776 1.154s1.022 1.784 1.022 3.044v0.894h-6.43c0.028 1.096 0.305 1.928 0.83 2.495s1.265 0.852 2.219 0.852c1.005 0 1.998-0.21 2.981-0.63v1.261c-0.5 0.216-0.972 0.37-1.418 0.464s-0.984 0.141-1.614 0.141zM85.786 10.802c-0.749 0-1.347 0.244-1.793 0.732s-0.708 1.164-0.788 2.027h4.88c0-0.891-0.199-1.574-0.596-2.048s-0.965-0.711-1.703-0.711z"></path>
<path fill="#173647" style="fill: var(--color1, #173647)" d="M95.45 9.618c0.414 0 0.786 0.034 1.116 0.102l-0.196 1.312c-0.386-0.085-0.727-0.128-1.022-0.128-0.755 0-1.401 0.307-1.938 0.92s-0.805 1.377-0.805 2.291v5.008h-1.414v-9.334h1.167l0.162 1.729h0.068c0.346-0.607 0.764-1.076 1.252-1.405s1.024-0.494 1.609-0.494z"></path>
<path fill="#173647" style="fill: var(--color1, #173647)" d="M69.597 26.287c0 0-0.933-0.106-1.319-0.106-0.56 0-0.846 0.2-0.846 0.593 0 0.427 0.24 0.526 1.020 0.74 0.96 0.267 1.306 0.52 1.306 1.299 0 1-0.626 1.433-1.526 1.433-0.593 0-1.493-0.18-1.493-0.18l0.073-0.593c0 0 0.9 0.12 1.373 0.12 0.566 0 0.826-0.253 0.826-0.733 0-0.387-0.206-0.52-0.906-0.686-0.986-0.253-1.413-0.553-1.413-1.346 0-0.92 0.606-1.299 1.519-1.299 0.58 0 1.446 0.16 1.446 0.16l-0.060 0.6z"></path>
<path fill="#173647" style="fill: var(--color1, #173647)" d="M71.531 25.608h1.286l1.020 3.565 1.020-3.565h1.293v4.564h-0.746v-3.945h-0.039l-1.14 3.758h-0.773l-1.14-3.758h-0.039v3.945h-0.74v-4.564z"></path>
<path fill="#173647" style="fill: var(--color1, #173647)" d="M87.605 25.608h3.332v0.66h-1.286v3.905h-0.746v-3.905h-1.299v-0.66z"></path>
<path fill="#173647" style="fill: var(--color1, #173647)" d="M94.155 25.608c0.906 0 1.393 0.34 1.393 1.186 0 0.553-0.173 0.826-0.54 1.026 0.393 0.153 0.653 0.433 0.653 1.059 0 0.933-0.566 1.293-1.453 1.293h-1.786v-4.564h1.733zM93.162 26.247v1.306h0.98c0.453 0 0.653-0.227 0.653-0.673 0-0.44-0.227-0.633-0.68-0.633h-0.953zM93.162 28.18v1.353h1.006c0.46 0 0.733-0.147 0.733-0.693 0-0.52-0.387-0.66-0.746-0.66h-0.993z"></path>
<path fill="#173647" style="fill: var(--color1, #173647)" d="M97.494 25.608h2.879v0.646h-2.139v1.293h1.739v0.633h-1.739v1.339h2.139v0.653h-2.879v-4.564z"></path>
<path fill="#173647" style="fill: var(--color1, #173647)" d="M103.025 25.608h1.472l1.133 4.564h-0.746l-0.337-1.339h-1.571l-0.337 1.339h-0.74l1.126-4.564zM103.124 28.18h1.28l-0.472-1.953h-0.333l-0.475 1.953z"></path>
<path fill="#173647" style="fill: var(--color1, #173647)" d="M108.017 28.819v1.353h-0.74v-4.564h1.733c1.006 0 1.546 0.576 1.546 1.589 0 0.646-0.26 1.23-0.746 1.456l0.753 1.519h-0.813l-0.66-1.353h-1.073zM109.010 26.247h-0.993v1.933h1.006c0.56 0 0.773-0.503 0.773-0.976-0-0.52-0.253-0.956-0.786-0.956z"></path>
<path fill="#173647" style="fill: var(--color1, #173647)" d="M78.888 25.608h1.472l1.133 4.564h-0.746l-0.337-1.339h-1.571l-0.337 1.339h-0.74l1.126-4.564zM78.986 28.18h1.28l-0.472-1.953h-0.333l-0.475 1.953z"></path>
<path fill="#173647" style="fill: var(--color1, #173647)" d="M83.879 28.819v1.353h-0.74v-4.564h1.732c1.006 0 1.546 0.576 1.546 1.589 0 0.646-0.26 1.23-0.746 1.456l0.753 1.519h-0.813l-0.66-1.353h-1.073zM84.872 26.247h-0.993v1.933h1.006c0.56 0 0.773-0.503 0.773-0.976 0-0.52-0.253-0.956-0.786-0.956z"></path>
<path fill="#173647" style="fill: var(--color1, #173647)" d="M35.527 29.281c0 0.295-0.107 0.525-0.321 0.69s-0.504 0.248-0.871 0.248c-0.397 0-0.703-0.051-0.917-0.153v-0.376c0.138 0.058 0.287 0.104 0.449 0.138s0.323 0.051 0.481 0.051c0.26 0 0.455-0.049 0.587-0.148s0.197-0.236 0.197-0.411c0-0.116-0.023-0.211-0.070-0.286s-0.125-0.142-0.234-0.205-0.276-0.134-0.499-0.213c-0.312-0.112-0.535-0.244-0.668-0.397s-0.2-0.352-0.2-0.598c0-0.258 0.097-0.464 0.291-0.617s0.451-0.229 0.77-0.229c0.333 0 0.639 0.061 0.919 0.183l-0.122 0.339c-0.277-0.116-0.545-0.174-0.807-0.174-0.206 0-0.367 0.044-0.484 0.133s-0.174 0.212-0.174 0.369c0 0.116 0.022 0.211 0.064 0.286s0.115 0.142 0.217 0.204 0.257 0.13 0.467 0.205c0.351 0.125 0.593 0.26 0.725 0.403s0.198 0.331 0.198 0.56z"></path>
<path fill="#173647" style="fill: var(--color1, #173647)" d="M36.572 27.66v1.63c0 0.205 0.047 0.357 0.14 0.459s0.239 0.151 0.438 0.151c0.263 0 0.455-0.072 0.577-0.215s0.182-0.378 0.182-0.704v-1.32h0.381v2.512h-0.314l-0.055-0.337h-0.021c-0.078 0.124-0.186 0.218-0.324 0.284s-0.296 0.098-0.473 0.098c-0.306 0-0.535-0.073-0.687-0.218s-0.228-0.378-0.228-0.697v-1.644h0.385z"></path>
<path fill="#173647" style="fill: var(--color1, #173647)" d="M40.314 30.218c-0.163 0-0.313-0.030-0.448-0.091s-0.249-0.153-0.34-0.278h-0.027c0.018 0.147 0.027 0.286 0.027 0.417v1.034h-0.38v-3.64h0.309l0.053 0.344h0.018c0.098-0.138 0.212-0.237 0.342-0.298s0.279-0.092 0.447-0.092c0.333 0 0.59 0.114 0.771 0.342s0.272 0.547 0.272 0.958c0 0.413-0.092 0.733-0.276 0.962s-0.44 0.343-0.767 0.343zM40.26 27.938c-0.257 0-0.442 0.071-0.557 0.213s-0.174 0.368-0.177 0.678v0.085c0 0.353 0.059 0.605 0.177 0.758s0.306 0.228 0.566 0.228c0.217 0 0.387-0.088 0.51-0.264s0.185-0.418 0.185-0.727c0-0.313-0.062-0.554-0.185-0.721s-0.296-0.251-0.519-0.251z"></path>
<path fill="#173647" style="fill: var(--color1, #173647)" d="M43.261 30.218c-0.163 0-0.313-0.030-0.448-0.091s-0.249-0.153-0.34-0.278h-0.027c0.018 0.147 0.027 0.286 0.027 0.417v1.034h-0.38v-3.64h0.309l0.053 0.344h0.018c0.098-0.138 0.212-0.237 0.342-0.298s0.279-0.092 0.447-0.092c0.333 0 0.59 0.114 0.771 0.342s0.272 0.547 0.272 0.958c0 0.413-0.092 0.733-0.276 0.962s-0.44 0.343-0.767 0.343zM43.207 27.938c-0.257 0-0.442 0.071-0.557 0.213s-0.174 0.368-0.177 0.678v0.085c0 0.353 0.059 0.605 0.177 0.758s0.306 0.228 0.566 0.228c0.217 0 0.387-0.088 0.51-0.264s0.185-0.418 0.185-0.727c0-0.313-0.062-0.554-0.185-0.721s-0.296-0.251-0.519-0.251z"></path>
<path fill="#173647" style="fill: var(--color1, #173647)" d="M47.226 28.914c0 0.41-0.103 0.729-0.31 0.959s-0.491 0.345-0.855 0.345c-0.225 0-0.424-0.053-0.598-0.158s-0.309-0.256-0.403-0.454c-0.095-0.197-0.142-0.428-0.142-0.692 0-0.41 0.102-0.729 0.307-0.957s0.489-0.343 0.853-0.343c0.351 0 0.631 0.117 0.838 0.351s0.311 0.551 0.311 0.949zM45.311 28.914c0 0.321 0.064 0.565 0.193 0.733s0.317 0.252 0.566 0.252c0.249 0 0.438-0.084 0.567-0.251s0.194-0.412 0.194-0.734c0-0.32-0.065-0.562-0.194-0.728s-0.32-0.249-0.572-0.249c-0.249 0-0.437 0.082-0.564 0.245s-0.19 0.407-0.19 0.731z"></path>
<path fill="#173647" style="fill: var(--color1, #173647)" d="M49.106 27.614c0.112 0 0.212 0.009 0.3 0.027l-0.053 0.353c-0.104-0.023-0.196-0.034-0.275-0.034-0.203 0-0.377 0.083-0.521 0.248s-0.217 0.37-0.217 0.617v1.348h-0.38v-2.512h0.314l0.044 0.465h0.018c0.093-0.163 0.205-0.289 0.337-0.378s0.276-0.133 0.433-0.133z"></path>
<path fill="#173647" style="fill: var(--color1, #173647)" d="M50.966 29.904c0.067 0 0.132-0.005 0.195-0.015s0.112-0.020 0.149-0.031v0.291c-0.041 0.020-0.102 0.036-0.182 0.049s-0.153 0.020-0.217 0.020c-0.486 0-0.729-0.256-0.729-0.768v-1.494h-0.36v-0.184l0.36-0.158 0.16-0.536h0.22v0.582h0.729v0.296h-0.729v1.479c0 0.151 0.036 0.267 0.108 0.348s0.171 0.122 0.296 0.122z"></path>
<path fill="#173647" style="fill: var(--color1, #173647)" d="M52.918 30.218c-0.371 0-0.664-0.113-0.879-0.339s-0.322-0.54-0.322-0.942c0-0.405 0.1-0.727 0.299-0.965s0.467-0.357 0.804-0.357c0.315 0 0.564 0.104 0.747 0.311s0.275 0.48 0.275 0.82v0.241h-1.731c0.008 0.295 0.082 0.519 0.224 0.672s0.34 0.229 0.597 0.229c0.27 0 0.538-0.057 0.802-0.17v0.339c-0.134 0.058-0.262 0.1-0.382 0.125s-0.265 0.038-0.435 0.038zM52.815 27.933c-0.202 0-0.363 0.066-0.483 0.197s-0.191 0.313-0.212 0.545h1.314c0-0.24-0.053-0.424-0.16-0.551s-0.26-0.192-0.458-0.192z"></path>
<path fill="#173647" style="fill: var(--color1, #173647)" d="M56.294 29.836h-0.021c-0.176 0.255-0.438 0.383-0.789 0.383-0.329 0-0.584-0.112-0.767-0.337s-0.274-0.544-0.274-0.958 0.092-0.736 0.275-0.965c0.183-0.229 0.438-0.344 0.765-0.344 0.341 0 0.602 0.124 0.784 0.371h0.030l-0.016-0.181-0.009-0.176v-1.023h0.381v3.567h-0.31l-0.050-0.337zM55.533 29.9c0.26 0 0.448-0.071 0.565-0.212s0.175-0.369 0.175-0.684v-0.080c0-0.356-0.059-0.61-0.178-0.762s-0.308-0.228-0.567-0.228c-0.223 0-0.394 0.087-0.512 0.26s-0.178 0.418-0.178 0.735c0 0.321 0.059 0.563 0.177 0.727s0.29 0.245 0.518 0.245z"></path>
<path fill="#173647" style="fill: var(--color1, #173647)" d="M60.038 27.619c0.33 0 0.586 0.113 0.769 0.338s0.274 0.544 0.274 0.957c0 0.413-0.092 0.733-0.276 0.962s-0.44 0.343-0.767 0.343c-0.163 0-0.313-0.030-0.448-0.091s-0.249-0.153-0.34-0.278h-0.027l-0.080 0.323h-0.273v-3.567h0.38v0.867c0 0.194-0.006 0.368-0.018 0.523h0.018c0.177-0.251 0.44-0.376 0.788-0.376zM59.982 27.938c-0.26 0-0.447 0.074-0.561 0.223s-0.172 0.4-0.172 0.753 0.059 0.605 0.177 0.758c0.118 0.152 0.306 0.228 0.566 0.228 0.234 0 0.408-0.085 0.523-0.255s0.172-0.415 0.172-0.734c0-0.327-0.057-0.571-0.172-0.731s-0.292-0.241-0.532-0.241z"></path>
<path fill="#173647" style="fill: var(--color1, #173647)" d="M61.41 27.66h0.408l0.55 1.433c0.12 0.327 0.196 0.563 0.225 0.708h0.018c0.020-0.078 0.061-0.211 0.125-0.4s0.271-0.769 0.622-1.741h0.408l-1.080 2.861c-0.107 0.283-0.232 0.483-0.375 0.602s-0.318 0.178-0.526 0.178c-0.116 0-0.231-0.013-0.344-0.039v-0.305c0.084 0.018 0.178 0.028 0.282 0.028 0.261 0 0.448-0.147 0.559-0.44l0.14-0.357-1.013-2.526z"></path>
</symbol>
<symbol id="icon-mongodb" viewBox="0 0 32 32">
<path fill="#13aa52" style="fill: var(--color1, #13aa52)" d="M32 16c0 8.837-7.163 16-16 16s-16-7.163-16-16c0-8.837 7.163-16 16-16s16 7.163 16 16z"></path>
<path fill="#fff" style="fill: var(--color2, #fff)" d="M20.277 14.045c-1.011-4.46-3.399-5.927-3.656-6.487-0.281-0.395-0.566-1.098-0.566-1.098-0.005-0.012-0.012-0.033-0.021-0.053-0.029 0.395-0.044 0.548-0.418 0.947-0.579 0.452-3.548 2.944-3.79 8.012-0.225 4.726 3.414 7.543 3.906 7.902l0.056 0.040v-0.003c0.003 0.024 0.156 1.125 0.264 2.292h0.386c0.106-0.953 0.248-1.788 0.436-2.607l-0.029 0.152 0.031-0.020c0.234-0.168 0.439-0.337 0.632-0.518l-0.004 0.004 0.023-0.020c1.046-0.967 2.927-3.202 2.909-6.767-0.004-0.63-0.061-1.243-0.167-1.839l0.010 0.066zM16.011 20.598s0-6.629 0.219-6.628c0.171 0 0.392 8.55 0.392 8.55-0.304-0.037-0.61-1.407-0.61-1.923z"></path>
</symbol>
<symbol id="icon-git" viewBox="0 0 32 32">
<path fill="#a259ff" style="fill: var(--color1, #a259ff)" d="M15.999 0.333c-8.835 0-15.999 7.191-15.999 16.065 0 7.096 4.584 13.117 10.944 15.241 0.799 0.148 1.091-0.348 1.091-0.774 0-0.381-0.014-1.391-0.022-2.732-4.452 0.972-5.39-2.153-5.39-2.153-0.727-1.856-1.775-2.349-1.775-2.349-1.453-0.997 0.109-0.978 0.109-0.978 1.605 0.113 2.45 1.656 2.45 1.656 1.429 2.455 3.746 1.745 4.658 1.334 0.144-1.037 0.558-1.746 1.015-2.147-3.552-0.406-7.287-1.783-7.287-7.938 0-1.753 0.623-3.188 1.646-4.312-0.166-0.406-0.714-2.039 0.156-4.25 0 0 1.344-0.431 4.4 1.646 1.276-0.356 2.645-0.534 4.006-0.541 1.358 0.007 2.728 0.185 4.006 0.541 3.053-2.078 4.395-1.646 4.395-1.646 0.872 2.211 0.324 3.844 0.158 4.25 1.026 1.124 1.645 2.558 1.645 4.312 0 6.17-3.741 7.528-7.305 7.926 0.574 0.496 1.086 1.476 1.086 2.975 0 2.148-0.019 3.879-0.019 4.406 0 0.43 0.289 0.931 1.1 0.772 6.352-2.128 10.932-8.145 10.932-15.239 0-8.873-7.164-16.065-16.001-16.065z"></path>
<path fill="#a259ff" style="fill: var(--color2, #a259ff)" d="M24.419 7.041c0.847 2.187 0.307 3.802 0.142 4.205 1.026 1.124 1.645 2.558 1.645 4.312 0 6.17-3.741 7.528-7.305 7.926 0.574 0.496 1.086 1.476 1.086 2.975 0 2.148-0.019 3.879-0.019 4.406 0 0.43 0.289 0.931 1.1 0.772 6.353-2.128 10.932-8.145 10.932-15.239 0-1.907-0.332-3.735-0.94-5.432-2.206-2.323-4.661-3.869-6.641-3.925z"></path>
<path fill="#a259ff" style="fill: var(--color2, #a259ff)" d="M12.45 24.343c0.18-0.362 0.399-0.644 0.63-0.848-1.947-0.223-3.946-0.743-5.358-2.177 1.086 1.807 2.854 2.63 4.728 3.025z"></path>
<path fill="#a259ff" style="fill: var(--color3, #a259ff)" d="M0.833 17.48c0-8.873 7.164-16.065 15.999-16.065 4.906 0 9.294 2.219 12.228 5.709-2.898-4.108-7.666-6.792-13.061-6.792-8.835 0-15.999 7.191-15.999 16.065 0 3.956 1.427 7.576 3.79 10.374-1.859-2.623-2.957-5.827-2.957-9.291z"></path>
<path fill="#083e66" style="fill: var(--color4, #083e66)" d="M20.82 27.542c0-1.499-0.511-2.48-1.086-2.976 3.564-0.397 7.306-1.756 7.306-7.926 0-1.754-0.619-3.187-1.646-4.311 0.166-0.406 0.716-2.039-0.158-4.25 0 0-0.166-0.051-0.509-0.031 0.375 1.667-0.027 2.859-0.165 3.198 1.026 1.124 1.645 2.558 1.645 4.312 0 6.17-3.741 7.528-7.305 7.926 0.574 0.496 1.086 1.476 1.086 2.975 0 2.148-0.019 3.879-0.019 4.406 0 0.379 0.226 0.811 0.834 0.801 0.004-0.726 0.019-2.268 0.019-4.123z"></path>
<path fill="#a259ff" style="fill: var(--color2, #a259ff)" d="M7.578 27.355c0.336 0.692 1.465 2.348 4.444 1.999-0.004-0.364-0.007-0.773-0.009-1.221-2.298 0.502-3.655-0.090-4.435-0.778z"></path>
<path fill="#3c0542" style="fill: var(--color3, #3c0542)" d="M8.153 25.251c-0.103-0.155-0.295-0.418-0.574-0.68 0.181 0.269 0.374 0.494 0.574 0.68z"></path>
</symbol>
<symbol id="icon-figma" viewBox="0 0 32 32">
<path fill="#1abcfe" style="fill: var(--color3, #1abcfe)" d="M16 16c0-2.209 1.791-4 4-4s4 1.791 4 4c0 2.209-1.791 4-4 4s-4-1.791-4-4z"></path>
<path fill="#0acf83" style="fill: var(--color4, #0acf83)" d="M8 24c0-2.209 1.791-4 4-4h4v4c0 2.209-1.791 4-4 4s-4-1.791-4-4z"></path>
<path fill="#ff7262" style="fill: var(--color5, #ff7262)" d="M16 4v8h4c2.209 0 4-1.791 4-4s-1.791-4-4-4h-4z"></path>
<path fill="#f24e1e" style="fill: var(--color6, #f24e1e)" d="M8 8c0 2.209 1.791 4 4 4h4v-8h-4c-2.209 0-4 1.791-4 4z"></path>
<path fill="#a259ff" style="fill: var(--color7, #a259ff)" d="M8 16c0 2.209 1.791 4 4 4h4v-8h-4c-2.209 0-4 1.791-4 4z"></path>
</symbol>
<symbol id="icon-github" viewBox="0 0 32 32">
<path d="M15.988 2.384c-7.728-0.003-13.988 6.253-13.988 13.975 0 6.106 3.916 11.297 9.369 13.203 0.734 0.184 0.622-0.337 0.622-0.694v-2.422c-4.241 0.497-4.412-2.309-4.697-2.778-0.575-0.981-1.934-1.231-1.528-1.7 0.966-0.497 1.95 0.125 3.091 1.809 0.825 1.222 2.434 1.016 3.25 0.813 0.178-0.734 0.559-1.391 1.084-1.9-4.394-0.788-6.225-3.469-6.225-6.656 0-1.547 0.509-2.969 1.509-4.116-0.638-1.891 0.059-3.509 0.153-3.75 1.816-0.162 3.703 1.3 3.85 1.416 1.031-0.278 2.209-0.425 3.528-0.425 1.325 0 2.506 0.153 3.547 0.434 0.353-0.269 2.103-1.525 3.791-1.372 0.091 0.241 0.772 1.822 0.172 3.688 1.012 1.15 1.528 2.584 1.528 4.134 0 3.194-1.844 5.878-6.25 6.653 0.735 0.723 1.191 1.729 1.191 2.841 0 0.001 0 0.002 0 0.003v-0 3.516c0.025 0.281 0 0.559 0.469 0.559 5.534-1.866 9.519-7.094 9.519-13.253 0-7.725-6.262-13.978-13.984-13.978z"></path>
</symbol>
<symbol id="icon-vscode" viewBox="0 0 32 32">
<path fill="#0065a9" style="fill: var(--color8, #0065a9)" d="M29.010 5.030l-5.766-2.776c-0.221-0.109-0.481-0.173-0.757-0.173-0.481 0-0.917 0.195-1.232 0.511l-0 0-18.875 17.208c-0.235 0.214-0.382 0.522-0.382 0.863 0 0.302 0.115 0.577 0.303 0.784l-0.001-0.001c0.025 0.027 0.050 0.053 0.077 0.077l1.541 1.4c0.206 0.188 0.482 0.303 0.784 0.303 0.266 0 0.511-0.089 0.708-0.239l-0.003 0.002 22.735-17.24c0.192-0.147 0.436-0.236 0.7-0.236 0.639 0 1.158 0.518 1.158 1.157v0-0.067c-0-0.69-0.399-1.286-0.98-1.57l-0.010-0.005z"></path>
<path fill="#007acc" style="fill: var(--color9, #007acc)" d="M29.010 26.97l-5.766 2.777c-0.221 0.109-0.481 0.172-0.756 0.172-0.481 0-0.917-0.195-1.233-0.51l0 0-18.875-17.209c-0.235-0.214-0.382-0.522-0.382-0.864 0-0.302 0.115-0.577 0.303-0.784l-0.001 0.001c0.025-0.027 0.050-0.053 0.077-0.077l1.541-1.4c0.206-0.189 0.482-0.305 0.786-0.305 0.267 0 0.513 0.090 0.709 0.241l-0.003-0.002 22.732 17.24c0.192 0.147 0.436 0.236 0.7 0.236 0.639 0 1.158-0.518 1.158-1.157v-0 0.072c-0.002 0.688-0.401 1.282-0.98 1.565l-0.010 0.005z"></path>
<path fill="#1f9cf0" style="fill: var(--color10, #1f9cf0)" d="M23.244 29.747c-0.221 0.109-0.481 0.172-0.756 0.172-0.481 0-0.917-0.195-1.233-0.51l0 0c0.185 0.183 0.439 0.295 0.72 0.295 0.564 0 1.022-0.456 1.025-1.020v-25.368c0-0 0-0.001 0-0.001 0-0.566-0.458-1.024-1.024-1.024-0.283 0-0.54 0.115-0.725 0.301l-0 0c0.316-0.316 0.752-0.511 1.234-0.511 0.275 0 0.535 0.064 0.766 0.177l-0.010-0.005 5.765 2.772c0.593 0.288 0.994 0.884 0.995 1.575v18.8c0 0 0 0 0 0 0 0.69-0.4 1.287-0.981 1.571l-0.010 0.005z"></path>
</symbol>
<symbol id="icon-cup" viewBox="0 0 32 32">
<path fill="#ff7058" style="fill: var(--color1, #ff7058)" d="M18.933 26.333h-5.867l1-2.133 0.867-2h2.133l0.867 2z"></path>
<path fill="#ffd15c" style="fill: var(--color2, #ffd15c)" d="M22.667 26.333h-13.333c-0.733 0-1.333 0.6-1.333 1.333v4.333h15.933v-4.333c0.067-0.733-0.533-1.333-1.267-1.333z"></path>
<path fill="#f1543f" style="fill: var(--color3, #f1543f)" d="M17.933 24.2c-0.533 0.267-1.067 0.533-1.6 0.733l-0.333 0.067-0.333-0.133c-0.533-0.2-1.067-0.467-1.6-0.733l0.867-2h2.067l0.933 2.067z"></path>
<path fill="#f8b64c" style="fill: var(--color4, #f8b64c)" d="M0 3.667v2.733c0 6.667 4.133 12.4 9.933 14.8 1.867 0.8 3.933 1.2 6.067 1.2s4.2-0.4 6.067-1.2c5.8-2.4 9.933-8.133 9.933-14.8v-2.733h-32zM29.333 6.4c0 3.2-1.133 6.133-3.067 8.467-2.467 2.933-6.133 4.867-10.267 4.867s-7.8-1.867-10.267-4.867c-1.867-2.267-3.067-5.267-3.067-8.467v-0.067h26.6v0.067h0.067z"></path>
<path fill="#f8b64c" style="fill: var(--color4, #f8b64c)" d="M26.4 0h-20.8c-0.467 0-0.8 0.4-0.8 0.8 0 0.467 0.333 0.867 0.8 0.867h20.8c0.467 0 0.8-0.4 0.8-0.8-0-0.467-0.333-0.867-0.8-0.867z"></path>
<path fill="#ffd15c" style="fill: var(--color2, #ffd15c)" d="M26.4 1.667v7.2c0 6.667-4.133 12.733-10.4 15.133-6.267-2.467-10.4-8.467-10.4-15.2v-7.133h20.8z"></path>
<path fill="#fff" style="fill: var(--color5, #fff)" d="M16 4.667l1.4 4.267h4.467l-3.6 2.667 1.333 4.267-3.6-2.667-3.6 2.667 1.333-4.267-3.6-2.667h4.467z"></path>
<path fill="#ffc952" style="fill: var(--color6, #ffc952)" d="M5.6 1.667h20.733v1h-20.733v-1z"></path>
</symbol>
<symbol id="icon-clock" viewBox="0 0 32 32">
<path fill="#407190" style="fill: var(--color19, #407190)" d="M12.366 21.602c-0.746-0.486-1.811-0.172-2.379 0.701l-3.948 6.064c-0.568 0.872-0.424 1.974 0.321 2.459s1.811 0.172 2.379-0.701l3.948-6.064c0.568-0.873 0.424-1.974-0.321-2.459z"></path>
<path fill="#407190" style="fill: var(--color19, #407190)" d="M19.634 21.602c0.746-0.486 1.81-0.172 2.379 0.701l3.948 6.064c0.568 0.872 0.424 1.974-0.321 2.459s-1.811 0.172-2.379-0.701l-3.948-6.064c-0.568-0.873-0.424-1.974 0.321-2.459z"></path>
<path fill="#cd4e38" style="fill: var(--color20, #cd4e38)" d="M18.3 3.102c0 0.462-0.375 0.837-0.837 0.837h-2.927c-0.462 0-0.837-0.374-0.837-0.837v-1.319c0-0.462 0.374-0.837 0.837-0.837h2.927c0.462 0 0.837 0.375 0.837 0.837v1.319h-0z"></path>
<path fill="#407190" style="fill: var(--color19, #407190)" d="M11.958 2.705h8.085v3.92h-8.085v-3.92z"></path>
<path fill="#407190" style="fill: var(--color19, #407190)" d="M9.465 8.078l-2.355 2.355-4.952-4.952 2.355-2.355 4.952 4.952z"></path>
<path fill="#cd4e38" style="fill: var(--color20, #cd4e38)" d="M9.868 2.372c-2.177-1.817-5.241-1.857-7.444-0.198-0.013-0.015-0.026-0.030-0.040-0.045-0.338-0.338-0.885-0.338-1.223 0s-0.338 0.885 0 1.223c0.014 0.014 0.030 0.027 0.045 0.040-1.658 2.203-1.618 5.267 0.199 7.444 0.041 0.049 0.1 0.079 0.164 0.081s0.126-0.021 0.171-0.066l8.144-8.144c0.045-0.045 0.069-0.107 0.066-0.171s-0.033-0.123-0.082-0.164z"></path>
<path fill="#407190" style="fill: var(--color19, #407190)" d="M27.487 3.125l2.355 2.355-4.952 4.952-2.355-2.355 4.952-4.952z"></path>
<path fill="#cd4e38" style="fill: var(--color20, #cd4e38)" d="M22.132 2.372c2.177-1.817 5.241-1.857 7.444-0.198 0.013-0.015 0.026-0.030 0.041-0.045 0.338-0.338 0.885-0.338 1.223 0s0.338 0.885 0 1.223c-0.014 0.014-0.030 0.027-0.045 0.040 1.658 2.203 1.618 5.267-0.199 7.444-0.041 0.049-0.1 0.079-0.164 0.081s-0.126-0.021-0.171-0.066l-8.145-8.144c-0.045-0.045-0.069-0.107-0.066-0.171s0.032-0.123 0.081-0.164z"></path>
<path fill="#589bc7" style="fill: var(--color21, #589bc7)" d="M29.297 16.999c0 7.343-5.953 13.296-13.296 13.296s-13.296-5.953-13.296-13.296c0-7.343 5.953-13.296 13.296-13.296s13.296 5.953 13.296 13.296z"></path>
<path fill="#fbf5e2" style="fill: var(--color22, #fbf5e2)" opacity="0.4" d="M27.435 16.999c0 6.315-5.119 11.434-11.434 11.434s-11.434-5.119-11.434-11.434c0-6.315 5.119-11.434 11.434-11.434s11.434 5.119 11.434 11.434z"></path>
<path fill="#fbf5e2" style="fill: var(--color22, #fbf5e2)" d="M26.331 16.999c0 5.706-4.625 10.331-10.331 10.331s-10.331-4.625-10.331-10.331c0-5.706 4.625-10.331 10.331-10.331s10.331 4.625 10.331 10.331z"></path>
<path fill="#407190" style="fill: var(--color19, #407190)" d="M20.552 20.774c0.342 0.362 0.346 0.914 0.008 1.234v0c-0.338 0.32-0.89 0.286-1.232-0.076l-3.331-3.558c-0.342-0.362-0.346-0.914-0.008-1.234v0c0.338-0.32 0.89-0.286 1.232 0.076l3.331 3.558z"></path>
<path fill="#407190" style="fill: var(--color19, #407190)" opacity="0.4" d="M20.888 9.273c0.127-0.228 0.045-0.517-0.184-0.644v0c-0.229-0.127-0.517-0.045-0.644 0.184l-4.231 7.596c-0.127 0.229-0.045 0.517 0.184 0.644v0c0.229 0.127 0.517 0.045 0.644-0.184l4.231-7.596z"></path>
<path fill="#cd4e38" style="fill: var(--color20, #cd4e38)" d="M7.252 13.462c-0.057 0.136 0.008 0.293 0.144 0.35l8.336 3.47c0.136 0.057 0.293-0.008 0.35-0.144v0c0.057-0.137-0.008-0.293-0.144-0.35l-8.335-3.47c-0.136-0.057-0.293 0.008-0.35 0.144v0z"></path>
<path fill="#589bc7" style="fill: var(--color21, #589bc7)" d="M18.268 16.999c0 1.252-1.015 2.268-2.268 2.268s-2.268-1.015-2.268-2.268c0-1.252 1.015-2.268 2.268-2.268s2.268 1.015 2.268 2.268z"></path>
<path fill="#cd4e38" style="fill: var(--color20, #cd4e38)" d="M16.591 8.225c0 0.326-0.265 0.591-0.591 0.591s-0.591-0.265-0.591-0.591c0-0.326 0.265-0.591 0.591-0.591s0.591 0.265 0.591 0.591z"></path>
<path fill="#cd4e38" style="fill: var(--color20, #cd4e38)" d="M16.591 25.772c0 0.326-0.265 0.591-0.591 0.591s-0.591-0.265-0.591-0.591c0-0.326 0.265-0.591 0.591-0.591s0.591 0.265 0.591 0.591z"></path>
<path fill="#cd4e38" style="fill: var(--color20, #cd4e38)" d="M7.816 16.999c0 0.326-0.265 0.591-0.591 0.591s-0.591-0.265-0.591-0.591c0-0.326 0.265-0.591 0.591-0.591s0.591 0.265 0.591 0.591z"></path>
<path fill="#cd4e38" style="fill: var(--color20, #cd4e38)" d="M25.364 16.999c0 0.326-0.265 0.591-0.591 0.591s-0.591-0.265-0.591-0.591c0-0.326 0.265-0.591 0.591-0.591s0.591 0.265 0.591 0.591z"></path>
</symbol>
<symbol id="icon-water-drop" viewBox="0 0 32 32">
<path fill="#32b2ff" style="fill: var(--color32, #32b2ff)" d="M7.514 16.262c-3.027 1.36-5.014 3.419-5.014 5.781 0 2.536 2.292 4.722 5.699 6.070 0.256 0.102 0.382 0.392 0.281 0.649-0.102 0.257-0.393 0.382-0.649 0.281-3.862-1.528-6.331-4.125-6.331-7 0-2.925 2.559-5.563 6.538-7.080 0.179-0.068 0.381-0.028 0.521 0.103 0.139 0.131 0.192 0.33 0.135 0.513-0.143 0.458-0.225 0.894-0.225 1.304 0 0.556 0.062 1.097 0.179 1.618 0.044 0.194-0.031 0.395-0.191 0.512-1.145 0.844-1.855 1.884-1.855 3.030 0 1.1 0.654 2.102 1.717 2.926 1.732 1.343 4.531 2.199 7.681 2.199 2.964 0 5.617-0.759 7.365-1.968 0.227-0.157 0.539-0.1 0.696 0.127s0.1 0.539-0.127 0.696c-1.884 1.303-4.738 2.145-7.934 2.145-3.405 0-6.421-0.957-8.293-2.408-1.339-1.038-2.105-2.332-2.105-3.717 0-1.349 0.729-2.614 2.006-3.638-0.091-0.494-0.139-1.002-0.139-1.522 0-0.201 0.016-0.409 0.045-0.621z"></path>
<path fill="#32b2ff" style="fill: var(--color32, #32b2ff)" d="M24.054 18.148c0.851 0.612 1.498 1.321 1.893 2.088 0.126 0.246 0.029 0.547-0.217 0.673-0.245 0.127-0.547 0.030-0.673-0.216-0.365-0.71-0.999-1.351-1.826-1.897-0.169-0.112-0.254-0.314-0.215-0.512 0.087-0.453 0.133-0.922 0.133-1.401 0-0.444-0.068-0.937-0.189-1.465-0.041-0.178 0.019-0.364 0.156-0.486 0.136-0.121 0.328-0.158 0.5-0.097 4.174 1.495 6.884 4.2 6.884 7.208 0 1.899-1.060 3.67-2.896 5.093-2.619 2.030-6.84 3.364-11.604 3.364-0.276 0-0.5-0.224-0.5-0.5s0.224-0.5 0.5-0.5c4.509 0 8.513-1.233 10.991-3.154 1.561-1.21 2.509-2.688 2.509-4.303 0-2.463-2.156-4.596-5.403-5.95 0.034 0.276 0.052 0.54 0.052 0.79 0 0.43-0.032 0.853-0.095 1.265z"></path>
<path fill="#32b2ff" style="fill: var(--color32, #32b2ff)" d="M16.143 1.628c0.978 0.878 3.664 4.514 5.65 8.268 1.344 2.542 2.356 5.141 2.356 6.987 0 4.603-3.737 8.34-8.34 8.34s-8.34-3.737-8.34-8.34c0-1.142 0.504-2.469 1.286-3.863 1.109-1.975 2.772-4.105 4.165-6.046 0.898-1.25 1.682-2.418 2.109-3.41 0.243-0.564 0.376-1.056 0.291-1.461-0.045-0.212 0.052-0.428 0.239-0.536s0.424-0.084 0.584 0.061zM16.221 3.184c-0.066 0.247-0.157 0.506-0.274 0.776-0.45 1.045-1.269 2.28-2.215 3.597-1.371 1.912-3.013 4.007-4.105 5.953-0.685 1.221-1.158 2.373-1.158 3.373 0 4.051 3.289 7.34 7.34 7.34s7.34-3.289 7.34-7.34c0-1.726-0.984-4.143-2.24-6.52-1.532-2.896-3.484-5.727-4.688-7.179z"></path>
<path fill="#32b2ff" style="fill: var(--color32, #32b2ff)" d="M17.079 22.494c0.339-0.054 0.67-0.154 0.991-0.276 3.38-1.279 3.872-5.188 3.425-8.289-0.039-0.273-0.293-0.463-0.566-0.424s-0.463 0.293-0.424 0.566c0.198 1.374 0.214 2.935-0.201 4.295-0.391 1.282-1.175 2.382-2.588 2.917-0.257 0.098-0.523 0.18-0.795 0.223-0.272 0.044-0.458 0.3-0.415 0.573 0.044 0.272 0.3 0.458 0.573 0.415z"></path>
</symbol>
<symbol id="icon-calendar" viewBox="0 0 32 32">
<path fill="#f4f4f4" style="fill: var(--color9, #f4f4f4)" d="M7.022 7.659h18.316v22.353h-18.316z"></path>
<path fill="#afafaf" style="fill: var(--color10, #afafaf)" d="M7.022 8.019v3.556h0.994c0.122-0.569 0.625-0.997 1.231-0.997s1.113 0.428 1.231 0.997h1c0.122-0.569 0.625-0.997 1.231-0.997s1.113 0.428 1.231 0.997h1c0.122-0.569 0.625-0.997 1.231-0.997s1.113 0.428 1.231 0.997h1c0.122-0.569 0.625-0.997 1.231-0.997s1.113 0.428 1.231 0.997h1c0.122-0.569 0.625-0.997 1.231-0.997s1.113 0.428 1.231 0.997h0.994v-3.556h-18.3z"></path>
<path fill="#cccbcc" style="fill: var(--color11, #cccbcc)" d="M7.022 7.841v3.556h0.994c0.122-0.569 0.625-0.997 1.231-0.997s1.113 0.428 1.231 0.997h1c0.122-0.569 0.625-0.997 1.231-0.997s1.113 0.428 1.231 0.997h1c0.122-0.569 0.625-0.997 1.231-0.997s1.113 0.428 1.231 0.997h1c0.122-0.569 0.625-0.997 1.231-0.997s1.113 0.428 1.231 0.997h1c0.122-0.569 0.625-0.997 1.231-0.997s1.113 0.428 1.231 0.997h0.994v-3.556h-18.3z"></path>
<path fill="#e8e7e8" style="fill: var(--color12, #e8e7e8)" d="M7.022 7.659v3.556h0.994c0.122-0.569 0.625-0.997 1.231-0.997s1.113 0.428 1.231 0.997h1c0.122-0.569 0.625-0.997 1.231-0.997s1.113 0.428 1.231 0.997h1c0.122-0.569 0.625-0.997 1.231-0.997s1.113 0.428 1.231 0.997h1c0.122-0.569 0.625-0.997 1.231-0.997s1.113 0.428 1.231 0.997h1c0.122-0.569 0.625-0.997 1.231-0.997s1.113 0.428 1.231 0.997h0.994v-3.556h-18.3z"></path>
<path fill="#262626" style="fill: var(--color13, #262626)" d="M7.022 7.659h18.316v0.95h-18.316z"></path>
<path fill="#f6b13a" style="fill: var(--color14, #f6b13a)" d="M25.288 8.019h-18.575c-0.284 0-0.516-0.231-0.516-0.516v-5.003c0-0.284 0.231-0.516 0.516-0.516h18.575c0.284 0 0.516 0.231 0.516 0.516v5.003c0 0.284-0.231 0.516-0.516 0.516z"></path>
<path fill="#de592b" style="fill: var(--color15, #de592b)" d="M14.15 19.378l-0.556-0.119 0.319-2.387h4.853v0.875c-1.353 1.591-2.044 3.541-2.069 5.847-0.028 0.291-0.331 0.438-0.916 0.438s-0.875-0.147-0.875-0.438c-0.078-1.113 0.822-2.903 2.706-5.369h-2.425c-0.481-0.053-0.825 0.331-1.037 1.153z"></path>
<path fill="#d8d7d6" style="fill: var(--color16, #d8d7d6)" d="M11.316 13.044h-3.484c-0.109 0-0.197-0.088-0.197-0.197s0.088-0.197 0.197-0.197h3.484c0.109 0 0.197 0.088 0.197 0.197s-0.091 0.197-0.197 0.197zM11.316 13.822h-3.484c-0.109 0-0.197-0.088-0.197-0.197s0.088-0.197 0.197-0.197h3.484c0.109 0 0.197 0.088 0.197 0.197s-0.091 0.197-0.197 0.197zM11.316 14.6h-3.484c-0.109 0-0.197-0.088-0.197-0.197s0.088-0.197 0.197-0.197h3.484c0.109 0 0.197 0.088 0.197 0.197s-0.091 0.197-0.197 0.197zM11.316 15.378h-3.484c-0.109 0-0.197-0.088-0.197-0.197s0.088-0.197 0.197-0.197h3.484c0.109 0 0.197 0.088 0.197 0.197s-0.091 0.197-0.197 0.197z"></path>
<path fill="#d8d7d6" style="fill: var(--color16, #d8d7d6)" d="M11.316 19.478h-3.484c-0.109 0-0.197-0.087-0.197-0.197s0.088-0.197 0.197-0.197h3.484c0.109 0 0.197 0.087 0.197 0.197 0 0.106-0.091 0.197-0.197 0.197zM11.316 20.256h-3.484c-0.109 0-0.197-0.087-0.197-0.197s0.088-0.197 0.197-0.197h3.484c0.109 0 0.197 0.087 0.197 0.197 0 0.106-0.091 0.197-0.197 0.197zM11.316 21.034h-3.484c-0.109 0-0.197-0.087-0.197-0.197s0.088-0.197 0.197-0.197h3.484c0.109 0 0.197 0.087 0.197 0.197 0 0.106-0.091 0.197-0.197 0.197zM11.316 21.813h-3.484c-0.109 0-0.197-0.087-0.197-0.197s0.088-0.197 0.197-0.197h3.484c0.109 0 0.197 0.087 0.197 0.197 0 0.106-0.091 0.197-0.197 0.197z"></path>
<path fill="#d8d7d6" style="fill: var(--color16, #d8d7d6)" d="M11.316 25.847h-3.484c-0.109 0-0.197-0.087-0.197-0.197s0.088-0.197 0.197-0.197h3.484c0.109 0 0.197 0.087 0.197 0.197 0 0.106-0.091 0.197-0.197 0.197zM11.316 26.625h-3.484c-0.109 0-0.197-0.087-0.197-0.197s0.088-0.197 0.197-0.197h3.484c0.109 0 0.197 0.087 0.197 0.197 0 0.106-0.091 0.197-0.197 0.197zM11.316 27.403h-3.484c-0.109 0-0.197-0.087-0.197-0.197s0.088-0.197 0.197-0.197h3.484c0.109 0 0.197 0.087 0.197 0.197 0 0.106-0.091 0.197-0.197 0.197zM11.316 28.181h-3.484c-0.109 0-0.197-0.087-0.197-0.197s0.088-0.197 0.197-0.197h3.484c0.109 0 0.197 0.087 0.197 0.197 0 0.106-0.091 0.197-0.197 0.197z"></path>
<path fill="#d8d7d6" style="fill: var(--color16, #d8d7d6)" d="M24.422 13.044h-3.484c-0.109 0-0.197-0.088-0.197-0.197s0.087-0.197 0.197-0.197h3.484c0.109 0 0.197 0.088 0.197 0.197s-0.087 0.197-0.197 0.197zM24.422 13.822h-3.484c-0.109 0-0.197-0.088-0.197-0.197s0.087-0.197 0.197-0.197h3.484c0.109 0 0.197 0.088 0.197 0.197s-0.087 0.197-0.197 0.197zM24.422 14.6h-3.484c-0.109 0-0.197-0.088-0.197-0.197s0.087-0.197 0.197-0.197h3.484c0.109 0 0.197 0.088 0.197 0.197s-0.087 0.197-0.197 0.197zM24.422 15.378h-3.484c-0.109 0-0.197-0.088-0.197-0.197s0.087-0.197 0.197-0.197h3.484c0.109 0 0.197 0.088 0.197 0.197s-0.087 0.197-0.197 0.197z"></path>
<path fill="#d8d7d6" style="fill: var(--color16, #d8d7d6)" d="M24.422 19.478h-3.484c-0.109 0-0.197-0.087-0.197-0.197s0.087-0.197 0.197-0.197h3.484c0.109 0 0.197 0.087 0.197 0.197 0 0.106-0.087 0.197-0.197 0.197zM24.422 20.256h-3.484c-0.109 0-0.197-0.087-0.197-0.197s0.087-0.197 0.197-0.197h3.484c0.109 0 0.197 0.087 0.197 0.197 0 0.106-0.087 0.197-0.197 0.197zM24.422 21.034h-3.484c-0.109 0-0.197-0.087-0.197-0.197s0.087-0.197 0.197-0.197h3.484c0.109 0 0.197 0.087 0.197 0.197 0 0.106-0.087 0.197-0.197 0.197zM24.422 21.813h-3.484c-0.109 0-0.197-0.087-0.197-0.197s0.087-0.197 0.197-0.197h3.484c0.109 0 0.197 0.087 0.197 0.197 0 0.106-0.087 0.197-0.197 0.197z"></path>
<path fill="#d8d7d6" style="fill: var(--color16, #d8d7d6)" d="M24.422 25.847h-3.484c-0.109 0-0.197-0.087-0.197-0.197s0.087-0.197 0.197-0.197h3.484c0.109 0 0.197 0.087 0.197 0.197 0 0.106-0.087 0.197-0.197 0.197zM24.422 26.625h-3.484c-0.109 0-0.197-0.087-0.197-0.197s0.087-0.197 0.197-0.197h3.484c0.109 0 0.197 0.087 0.197 0.197 0 0.106-0.087 0.197-0.197 0.197zM24.422 27.403h-3.484c-0.109 0-0.197-0.087-0.197-0.197s0.087-0.197 0.197-0.197h3.484c0.109 0 0.197 0.087 0.197 0.197 0 0.106-0.087 0.197-0.197 0.197zM24.422 28.181h-3.484c-0.109 0-0.197-0.087-0.197-0.197s0.087-0.197 0.197-0.197h3.484c0.109 0 0.197 0.087 0.197 0.197 0 0.106-0.087 0.197-0.197 0.197z"></path>
<path fill="#d8d7d6" style="fill: var(--color16, #d8d7d6)" d="M17.922 25.847h-3.484c-0.109 0-0.197-0.087-0.197-0.197s0.088-0.197 0.197-0.197h3.484c0.109 0 0.197 0.087 0.197 0.197 0 0.106-0.087 0.197-0.197 0.197zM17.922 26.625h-3.484c-0.109 0-0.197-0.087-0.197-0.197s0.088-0.197 0.197-0.197h3.484c0.109 0 0.197 0.087 0.197 0.197 0 0.106-0.087 0.197-0.197 0.197zM17.922 27.403h-3.484c-0.109 0-0.197-0.087-0.197-0.197s0.088-0.197 0.197-0.197h3.484c0.109 0 0.197 0.087 0.197 0.197 0 0.106-0.087 0.197-0.197 0.197zM17.922 28.181h-3.484c-0.109 0-0.197-0.087-0.197-0.197s0.088-0.197 0.197-0.197h3.484c0.109 0 0.197 0.087 0.197 0.197 0 0.106-0.087 0.197-0.197 0.197z"></path>
<path fill="#d8d7d6" style="fill: var(--color16, #d8d7d6)" d="M17.922 13.044h-3.484c-0.109 0-0.197-0.088-0.197-0.197s0.088-0.197 0.197-0.197h3.484c0.109 0 0.197 0.088 0.197 0.197s-0.087 0.197-0.197 0.197zM17.922 13.822h-3.484c-0.109 0-0.197-0.088-0.197-0.197s0.088-0.197 0.197-0.197h3.484c0.109 0 0.197 0.088 0.197 0.197s-0.087 0.197-0.197 0.197zM17.922 14.6h-3.484c-0.109 0-0.197-0.088-0.197-0.197s0.088-0.197 0.197-0.197h3.484c0.109 0 0.197 0.088 0.197 0.197s-0.087 0.197-0.197 0.197zM17.922 15.378h-3.484c-0.109 0-0.197-0.088-0.197-0.197s0.088-0.197 0.197-0.197h3.484c0.109 0 0.197 0.088 0.197 0.197s-0.087 0.197-0.197 0.197z"></path>
<path fill="#e0901d" style="fill: var(--color17, #e0901d)" d="M10.787 5.219c0 0.532 0.431 0.963 0.963 0.963s0.963-0.431 0.963-0.963v0c0-0.532-0.431-0.963-0.963-0.963s-0.963 0.431-0.963 0.963v0z"></path>
<path fill="#de592b" style="fill: var(--color15, #de592b)" d="M10.559 5.078c0 0.533 0.432 0.966 0.966 0.966s0.966-0.432 0.966-0.966v0c0-0.533-0.432-0.966-0.966-0.966s-0.966 0.432-0.966 0.966v0z"></path>
<path fill="#fac2b3" style="fill: var(--color18, #fac2b3)" d="M11.041 5.078c0 0.268 0.217 0.484 0.484 0.484s0.484-0.217 0.484-0.484v0c0-0.268-0.217-0.484-0.484-0.484s-0.484 0.217-0.484 0.484v0z"></path>
<path fill="#e0901d" style="fill: var(--color17, #e0901d)" d="M19.516 5.219c0 0.532 0.431 0.963 0.962 0.963s0.962-0.431 0.962-0.963v0c0-0.532-0.431-0.963-0.962-0.963s-0.962 0.431-0.962 0.963v0z"></path>
<path fill="#de592b" style="fill: var(--color15, #de592b)" d="M19.288 5.078c0 0.533 0.432 0.966 0.966 0.966s0.966-0.432 0.966-0.966v0c0-0.533-0.432-0.966-0.966-0.966s-0.966 0.432-0.966 0.966v0z"></path>
<path fill="#fac2b3" style="fill: var(--color18, #fac2b3)" d="M19.769 5.078c0 0.268 0.217 0.484 0.484 0.484s0.484-0.217 0.484-0.484v0c0-0.268-0.217-0.484-0.484-0.484s-0.484 0.217-0.484 0.484v0z"></path>
</symbol>
<symbol id="icon-water-hand" viewBox="0 0 32 32">
<path fill="#efcb99" style="fill: var(--color23, #efcb99)" d="M25.739 18.859v11.019h-16.348c-0.821 0-1.628-0.334-2.212-0.918l-6.261-6.261c-1.224-1.217-1.224-3.207 0-4.424 1.217-1.224 3.207-1.224 4.424 0l3.214 3.207c0.445-1.183 1.579-2.038 2.922-2.038h2.692c0.459 0 1.12-0.084 1.635-0.466 2.922-2.157 7.033-2.129 9.934-0.118z"></path>
<path fill="#d6ab75" style="fill: var(--color24, #d6ab75)" d="M25.739 18.859v11.019h-13.217v-10.435h1.649c0.459 0 1.12-0.084 1.635-0.466 2.922-2.157 7.033-2.129 9.934-0.118z"></path>
<path fill="#7c84e8" style="fill: var(--color25, #7c84e8)" d="M13.384 0.466c-0.195-0.285-0.529-0.431-0.863-0.431s-0.668 0.146-0.863 0.431c-4.536 6.713-5.398 7.45-5.398 9.913 0 3.45 2.81 6.261 6.261 6.261s6.261-2.81 6.261-6.261c0-2.428-0.786-3.082-5.398-9.913z"></path>
<path fill="#ff0c38" style="fill: var(--color26, #ff0c38)" d="M30.956 31.965h-4.87c-0.576 0-1.044-0.467-1.044-1.044v-12.522c0-0.576 0.467-1.044 1.044-1.044h4.87c0.576 0 1.044 0.467 1.044 1.044v12.522c0 0.576-0.467 1.044-1.044 1.044z"></path>
<path fill="#515be0" style="fill: var(--color27, #515be0)" d="M18.783 10.379c0 3.45-2.81 6.261-6.261 6.261v-16.605c0.334 0 0.668 0.146 0.863 0.431 4.612 6.831 5.398 7.485 5.398 9.913z"></path>
<path fill="#f5ddb3" style="fill: var(--color28, #f5ddb3)" d="M17.050 20.661c-0.772 0.57-1.767 0.87-2.88 0.87h-2.692c-0.577 0-1.043 0.466-1.043 1.044s0.466 1.044 1.043 1.044h8.348c0.577 0 1.044 0.466 1.044 1.044s-0.466 1.044-1.044 1.044h-9.572c-0.278 0-0.543-0.111-0.737-0.306l-5.649-5.649c-0.404-0.41-1.071-0.41-1.475 0-0.41 0.41-0.41 1.064 0 1.475l6.261 6.261c0.195 0.195 0.466 0.306 0.737 0.306h15.645v-6.845c-2.163-1.864-5.649-2.017-7.986-0.285z"></path>
<path fill="#f4d7b2" style="fill: var(--color29, #f4d7b2)" d="M25.037 20.946v6.845h-12.515v-2.087h7.304c0.577 0 1.044-0.466 1.044-1.044s-0.466-1.044-1.044-1.044h-7.304v-2.087h1.649c1.113 0 2.108-0.299 2.88-0.87 2.337-1.732 5.823-1.579 7.986 0.285z"></path>
<path fill="#dbe1f1" style="fill: var(--color30, #dbe1f1)" d="M14.609 11.423c0 0.577-0.466 1.043-1.043 1.043-0.369 0-0.716-0.063-1.043-0.181-1.217-0.431-2.087-1.593-2.087-2.95 0-0.577 0.466-1.043 1.043-1.043s1.043 0.466 1.043 1.043c0 0.577 0.466 1.043 1.043 1.043s1.043 0.466 1.043 1.043z"></path>
<path fill="#d0d5e5" style="fill: var(--color31, #d0d5e5)" d="M14.609 11.423c0 0.577-0.466 1.043-1.043 1.043-0.369 0-0.716-0.063-1.043-0.181v-2.95c0 0.577 0.466 1.043 1.043 1.043s1.043 0.466 1.043 1.043z"></path>
</symbol>
<symbol id="icon-arrowlink" viewBox="0 0 32 32">
<path d="M18 7.762v-7.762l12 12-12 12v-7.932c-13.961-0.328-13.362 9.493-9.808 15.932-8.772-9.482-6.909-24.674 9.808-24.238z"></path>
</symbol>
<symbol id="icon-vercel" viewBox="0 0 32 32">
<path style="fill: #fff" d="M16 2.133l14.72 25.6h-29.44l14.72-25.6zM16 6.413l-11.033 19.187h22.065l-11.032-19.187z"></path>
</symbol>
<symbol id="icon-prettier" viewBox="0 0 32 32">
<path fill="#56b3b4" style="fill: var(--color1, #56b3b4)" d="M21.714 8.571h1.143c0.315 0 0.571 0.256 0.571 0.571v0c0 0.315-0.256 0.571-0.571 0.571v0h-1.143c-0.315 0-0.571-0.256-0.571-0.571v0c0-0.315 0.256-0.571 0.571-0.571v0z"></path>
<path fill="#ea5e5e" style="fill: var(--color2, #ea5e5e)" d="M4.571 26.857h5.714c0.315 0 0.571 0.256 0.571 0.571v0c0 0.315-0.256 0.571-0.571 0.571v0h-5.714c0 0 0 0 0 0-0.315 0-0.57-0.255-0.571-0.57v-0c0-0 0-0.001 0-0.001 0-0.315 0.256-0.571 0.571-0.571 0 0 0 0 0 0v0z"></path>
<path fill="#bf85bf" style="fill: var(--color3, #bf85bf)" d="M18.286 17.714h3.429c0.315 0 0.571 0.256 0.571 0.571v0c0 0.315-0.256 0.571-0.571 0.571v0h-3.429c-0.315 0-0.571-0.256-0.571-0.571v0c0-0.315 0.256-0.571 0.571-0.571v0z"></path>
<path fill="#ea5e5e" style="fill: var(--color2, #ea5e5e)" d="M11.429 17.714h4.571c0.315 0 0.571 0.256 0.571 0.571v0c0 0.315-0.256 0.571-0.571 0.571v0h-4.571c-0.315 0-0.571-0.256-0.571-0.571v0c0-0.315 0.256-0.571 0.571-0.571v0z"></path>
<path fill="#56b3b4" style="fill: var(--color1, #56b3b4)" d="M4.571 17.714h4.572c0.315 0 0.571 0.256 0.571 0.571v0c0 0.315-0.256 0.571-0.571 0.571v0h-4.572c0 0 0 0 0 0-0.315 0-0.57-0.255-0.571-0.57v-0c0-0 0-0.001 0-0.001 0-0.315 0.256-0.571 0.571-0.571 0 0 0 0 0 0v0z"></path>
<path fill="#bf85bf" style="fill: var(--color3, #bf85bf)" d="M4.571 22.286h5.714c0.315 0 0.571 0.256 0.571 0.571v0c0 0.315-0.256 0.571-0.571 0.571v0h-5.714c-0.315 0-0.571-0.256-0.571-0.571v0c0-0.315 0.256-0.571 0.571-0.571v0z"></path>
<path fill="#bf85bf" style="fill: var(--color3, #bf85bf)" d="M4.571 13.143h5.714c0.315 0 0.571 0.256 0.571 0.571v0c0 0.315-0.256 0.571-0.571 0.571h-5.714c-0.315 0-0.571-0.256-0.571-0.571v0 0c0-0.315 0.256-0.571 0.571-0.571v0z"></path>
<path fill="#f7ba3e" style="fill: var(--color4, #f7ba3e)" d="M10.286 6.286h11.428c0.315 0 0.571 0.256 0.571 0.571v0 0c0 0.315-0.256 0.571-0.571 0.571v0h-11.428c-0.315 0-0.571-0.256-0.571-0.571v0 0c0-0.315 0.256-0.571 0.571-0.571v0z"></path>
<path fill="#ea5e5e" style="fill: var(--color2, #ea5e5e)" d="M4.571 6.286h3.429c0.315 0 0.571 0.256 0.571 0.571v0 0c0 0 0 0.001 0 0.001 0 0.315-0.256 0.571-0.571 0.571 0 0 0 0 0 0h-3.429c0 0 0 0 0 0-0.315 0-0.571-0.256-0.571-0.571 0-0 0-0.001 0-0.001v0c0-0.315 0.256-0.571 0.571-0.571v0z"></path>
<path fill="#f7ba3e" style="fill: var(--color4, #f7ba3e)" d="M9.143 24.571h1.143c0.315 0 0.571 0.256 0.571 0.571v0c0 0.315-0.256 0.571-0.571 0.571h-1.143c-0.315 0-0.571-0.256-0.571-0.571v0c0-0.315 0.256-0.571 0.571-0.571v0z"></path>
<path fill="#56b3b4" style="fill: var(--color1, #56b3b4)" d="M9.143 10.857h1.143c0.315 0 0.571 0.256 0.571 0.571v0c0 0.315-0.256 0.571-0.571 0.571h-1.143c-0.315 0-0.571-0.256-0.571-0.571v0c0-0.315 0.256-0.571 0.571-0.571v0z"></path>
<path fill="#56b3b4" style="fill: var(--color1, #56b3b4)" d="M4.571 24.571h2.286c0.315 0 0.571 0.256 0.571 0.571v0 0c0 0.315-0.256 0.571-0.571 0.571v0h-2.286c0 0 0 0 0 0-0.315 0-0.57-0.255-0.571-0.57v-0c0-0 0-0.001 0-0.001 0-0.315 0.256-0.571 0.571-0.571 0 0 0 0 0 0v0z"></path>
<path fill="#f7ba3e" style="fill: var(--color4, #f7ba3e)" d="M4.571 10.857h2.286c0.315 0 0.571 0.256 0.571 0.571v0 0c0 0 0 0.001 0 0.001 0 0.315-0.256 0.571-0.571 0.571 0 0 0 0 0 0h-2.286c-0.315 0-0.571-0.256-0.571-0.571v0 0c0-0 0-0.001 0-0.001 0-0.315 0.256-0.571 0.571-0.571 0 0 0 0 0 0v0z"></path>
<path fill="#d0d4d8" style="fill: var(--color5, #d0d4d8)" opacity="0.5" d="M19.429 24.571h1.143c0.315 0 0.571 0.256 0.571 0.571v0c0 0.315-0.256 0.571-0.571 0.571h-1.143c-0.315 0-0.571-0.256-0.571-0.571v0c0-0.315 0.256-0.571 0.571-0.571v0z"></path>
<path fill="#d0d4d8" style="fill: var(--color5, #d0d4d8)" opacity="0.5" d="M12.571 24.571h4.571c0.315 0 0.571 0.256 0.571 0.571v0c0 0.315-0.256 0.571-0.571 0.571h-4.571c0 0 0 0 0 0-0.315 0-0.57-0.255-0.571-0.57v-0c0-0 0-0.001 0-0.001 0-0.315 0.256-0.571 0.571-0.571 0 0 0 0 0 0v0z"></path>
<path fill="#d0d4d8" style="fill: var(--color5, #d0d4d8)" opacity="0.5" d="M22.857 24.571h4.571c0.315 0 0.571 0.256 0.571 0.571v0 0c0 0.315-0.256 0.571-0.571 0.571v0h-4.571c-0.315 0-0.571-0.256-0.571-0.571v0 0c0-0.315 0.256-0.571 0.571-0.571v0z"></path>
<path fill="#56b3b4" style="fill: var(--color1, #56b3b4)" d="M13.714 15.429h9.143c0.315 0 0.571 0.256 0.571 0.571v0 0c0 0.315-0.256 0.571-0.571 0.571v0h-9.143c-0.315 0-0.571-0.256-0.571-0.571v0 0c0-0.315 0.256-0.571 0.571-0.571v0z"></path>
<path fill="#f7ba3e" style="fill: var(--color4, #f7ba3e)" d="M8 15.429h3.429c0.315 0 0.571 0.256 0.571 0.571v0 0c0 0.315-0.256 0.571-0.571 0.571v0h-3.429c-0.315 0-0.571-0.256-0.571-0.571v0 0c0-0.315 0.256-0.571 0.571-0.571v0z"></path>
<path fill="#ea5e5e" style="fill: var(--color2, #ea5e5e)" d="M4.571 15.429h1.143c0 0 0.001 0 0.001 0 0.315 0 0.571 0.256 0.571 0.571 0 0 0 0 0 0v0c0 0.315-0.256 0.571-0.571 0.571v0h-1.144c-0.315 0-0.571-0.256-0.571-0.571v0 0c0-0.315 0.256-0.571 0.571-0.571v0z"></path>
<path fill="#bf85bf" style="fill: var(--color3, #bf85bf)" d="M14.857 8.571h4.571c0 0 0.001 0 0.001 0 0.315 0 0.571 0.256 0.571 0.571 0 0 0 0.001 0 0.001v-0c0 0.315-0.256 0.571-0.571 0.571v0h-4.572c-0.315 0-0.571-0.256-0.571-0.571v0c0-0 0-0.001 0-0.001 0-0.315 0.256-0.571 0.571-0.571 0 0 0 0 0 0v0z"></path>
<path fill="#56b3b4" style="fill: var(--color1, #56b3b4)" d="M4.571 8.571h8c0.315 0 0.571 0.256 0.571 0.571v0c0 0.315-0.256 0.571-0.571 0.571v0h-8c0 0 0 0 0 0-0.315 0-0.57-0.255-0.571-0.57v-0c0-0 0-0.001 0-0.001 0-0.315 0.256-0.571 0.571-0.571 0 0 0 0 0 0v0z"></path>
<path fill="#f7ba3e" style="fill: var(--color4, #f7ba3e)" d="M8 20h10.286c0.315 0 0.571 0.256 0.571 0.571v0c0 0.315-0.256 0.571-0.571 0.571v0h-10.286c-0.315 0-0.571-0.256-0.571-0.571v0c0-0.315 0.256-0.571 0.571-0.571v0z"></path>
<path fill="#bf85bf" style="fill: var(--color3, #bf85bf)" d="M4.571 20h1.143c0.315 0 0.571 0.256 0.571 0.571v0c0 0.315-0.256 0.571-0.571 0.571v0h-1.143c-0.315 0-0.571-0.256-0.571-0.571v0c0-0.315 0.256-0.571 0.571-0.571v0z"></path>
<path fill="#ea5e5e" style="fill: var(--color2, #ea5e5e)" d="M18.286 10.857h5.714c0.315 0 0.571 0.256 0.571 0.571v0 0c0 0 0 0.001 0 0.001 0 0.315-0.256 0.571-0.571 0.571 0 0 0 0 0 0h-5.714c-0.315 0-0.571-0.256-0.571-0.571v0 0c0-0 0-0.001 0-0.001 0-0.315 0.256-0.571 0.571-0.571 0 0 0 0 0 0v0z"></path>
<path fill="#f7ba3e" style="fill: var(--color4, #f7ba3e)" d="M18.286 13.143h5.714c0.315 0 0.571 0.256 0.571 0.571v0 0c0 0.315-0.256 0.571-0.571 0.571v0h-5.714c-0.315 0-0.571-0.256-0.571-0.571v0 0c0-0.315 0.256-0.571 0.571-0.571v0z"></path>
<path fill="#56b3b4" style="fill: var(--color1, #56b3b4)" d="M4.571 4h13.715c0.315 0 0.571 0.256 0.571 0.571v0 0c0 0.315-0.256 0.571-0.571 0.571v0h-13.715c-0.315 0-0.571-0.256-0.571-0.571v0 0c0-0.315 0.256-0.571 0.571-0.571v0z"></path>
<path fill="#d0d4d8" style="fill: var(--color5, #d0d4d8)" opacity="0.5" d="M20.571 4h6.857c0 0 0.001 0 0.001 0 0.315 0 0.571 0.256 0.571 0.571 0 0 0 0 0 0v0c0 0.315-0.256 0.571-0.571 0.571h-6.858c-0.315 0-0.571-0.256-0.571-0.571v0c0-0.315 0.256-0.571 0.571-0.571v0z"></path>
<path fill="#d0d4d8" style="fill: var(--color5, #d0d4d8)" opacity="0.5" d="M20.571 20h2.286c0.315 0 0.571 0.256 0.571 0.571v0c0 0.315-0.256 0.571-0.571 0.571v0h-2.286c-0.315 0-0.571-0.256-0.571-0.571v0c0-0.315 0.256-0.571 0.571-0.571v0z"></path>
<path fill="#d0d4d8" style="fill: var(--color5, #d0d4d8)" opacity="0.5" d="M25.143 20h2.286c0.315 0 0.571 0.256 0.571 0.571v0c0 0.315-0.256 0.571-0.571 0.571v0h-2.286c-0.315 0-0.571-0.256-0.571-0.571v0c0-0.315 0.256-0.571 0.571-0.571v0z"></path>
<path fill="#d0d4d8" style="fill: var(--color5, #d0d4d8)" opacity="0.5" d="M24 17.714h3.429c0.315 0 0.571 0.256 0.571 0.571v0c0 0.315-0.256 0.571-0.571 0.571v0h-3.429c-0.315 0-0.571-0.256-0.571-0.571v0c0-0.315 0.256-0.571 0.571-0.571v0z"></path>
<path fill="#d0d4d8" style="fill: var(--color5, #d0d4d8)" opacity="0.5" d="M24 6.286h3.429c0.315 0 0.571 0.256 0.571 0.571v0c0 0.315-0.256 0.571-0.571 0.571h-3.429c-0.315 0-0.571-0.256-0.571-0.571v0 0c0-0.315 0.256-0.571 0.571-0.571v0z"></path>
<path fill="#d0d4d8" style="fill: var(--color5, #d0d4d8)" opacity="0.5" d="M25.143 15.429h2.286c0.315 0 0.571 0.256 0.571 0.571v0 0c0 0.315-0.256 0.571-0.571 0.571h-2.286c-0 0-0.001 0-0.001 0-0.315 0-0.571-0.256-0.571-0.571 0 0 0 0 0 0v0c0 0 0 0 0 0 0-0.315 0.256-0.571 0.571-0.571 0 0 0.001 0 0.001 0h-0z"></path>
<path fill="#d0d4d8" style="fill: var(--color5, #d0d4d8)" opacity="0.5" d="M25.143 8.571h2.286c0 0 0 0 0 0 0.315 0 0.571 0.256 0.571 0.571 0 0 0 0.001 0 0.001v-0c0 0.315-0.256 0.571-0.571 0.571v0h-2.286c-0.315 0-0.571-0.256-0.571-0.571v0c0-0 0-0.001 0-0.001 0-0.315 0.256-0.571 0.571-0.571 0 0 0 0 0 0v0z"></path>
<path fill="#d0d4d8" style="fill: var(--color5, #d0d4d8)" opacity="0.5" d="M26.286 10.857h1.143c0.315 0 0.571 0.256 0.571 0.571v0 0c0 0.315-0.256 0.571-0.571 0.571v0h-1.143c-0.315 0-0.571-0.256-0.571-0.571v0 0c0-0.315 0.256-0.571 0.571-0.571v0z"></path>
<path fill="#d0d4d8" style="fill: var(--color5, #d0d4d8)" opacity="0.5" d="M26.286 13.143h1.143c0.315 0 0.571 0.256 0.571 0.571v0 0c0 0.315-0.256 0.571-0.571 0.571v0h-1.143c-0.315 0-0.571-0.256-0.571-0.571v0 0c0-0.315 0.256-0.571 0.571-0.571v0z"></path>
<path fill="#d0d4d8" style="fill: var(--color5, #d0d4d8)" opacity="0.5" d="M17.143 22.286h10.286c0.315 0 0.571 0.256 0.571 0.571v0c0 0.315-0.256 0.571-0.571 0.571v0h-10.286c-0.315 0-0.571-0.256-0.571-0.571v0c0-0.315 0.256-0.571 0.571-0.571v0z"></path>
<path fill="#d0d4d8" style="fill: var(--color5, #d0d4d8)" opacity="0.5" d="M12.571 22.286h2.286c0.315 0 0.571 0.256 0.571 0.571v0c0 0.315-0.256 0.571-0.571 0.571v0h-2.286c-0.315 0-0.571-0.256-0.571-0.571v0c0-0.315 0.256-0.571 0.571-0.571v0z"></path>
<path fill="#d0d4d8" style="fill: var(--color5, #d0d4d8)" opacity="0.5" d="M21.714 26.857h5.714c0.315 0 0.571 0.256 0.571 0.571v0c0 0.315-0.256 0.571-0.571 0.571v0h-5.714c-0.315 0-0.571-0.256-0.571-0.571v0c0-0.315 0.256-0.571 0.571-0.571v0z"></path>
<path fill="#d0d4d8" style="fill: var(--color5, #d0d4d8)" opacity="0.5" d="M12.571 26.857h6.857c0.315 0 0.571 0.256 0.571 0.571v0c0 0.315-0.256 0.571-0.571 0.571v0h-6.857c0 0 0 0 0 0-0.315 0-0.57-0.255-0.571-0.57v-0c0-0 0-0.001 0-0.001 0-0.315 0.256-0.571 0.571-0.571 0 0 0 0 0 0v0z"></path>
<path fill="#d0d4d8" style="fill: var(--color5, #d0d4d8)" opacity="0.5" d="M12.571 10.857h3.429c0.315 0 0.571 0.256 0.571 0.571v0 0c0 0 0 0.001 0 0.001 0 0.315-0.256 0.571-0.571 0.571 0 0 0 0 0 0h-3.429c-0.315 0-0.571-0.256-0.571-0.571v0 0c0-0 0-0.001 0-0.001 0-0.315 0.256-0.571 0.571-0.571 0 0 0 0 0 0v0z"></path>
<path fill="#d0d4d8" style="fill: var(--color5, #d0d4d8)" opacity="0.5" d="M12.571 13.143h3.429c0.315 0 0.571 0.256 0.571 0.571v0 0c0 0.315-0.256 0.571-0.571 0.571v0h-3.429c-0.315 0-0.571-0.256-0.571-0.571v0 0c0-0.315 0.256-0.571 0.571-0.571v0z"></path>
</symbol>
<symbol id="icon-eslint" viewBox="0 0 32 32">
<path fill="#4b32c3" style="fill: var(--color1, #4b32c3)" d="M29.832 16.7l-6.354 10.717c-0.226 0.353-0.617 0.584-1.061 0.584-0.020 0-0.040-0-0.059-0.001l0.003 0h-12.713c-0.015 0.001-0.032 0.001-0.049 0.001-0.448 0-0.842-0.234-1.066-0.586l-6.359-10.705c-0.109-0.182-0.173-0.402-0.173-0.636s0.064-0.454 0.176-0.642l-0.003 0.006 6.354-10.762c0.228-0.394 0.641-0.659 1.118-0.676l0.002-0h12.709c0.478 0.018 0.89 0.284 1.115 0.672l0.003 0.006 6.354 10.786c0.108 0.177 0.172 0.39 0.172 0.619s-0.064 0.442-0.175 0.624l0.003-0.005zM24.57 20.9v-9.614l-8.57-4.82-8.56 4.82v9.614l8.56 4.819z"></path>
<path fill="#8080f2" style="fill: var(--color2, #8080f2)" d="M21.802 19.188l-5.747 3.235-5.742-3.235v-6.47l5.742-3.236 5.747 3.236v6.47z"></path>
</symbol>
<symbol id="icon-nodemon" viewBox="0 0 32 32">
<path fill="#76d04b" style="fill: var(--color9, #76d04b)" d="M15.336 29.822c0.19 0.112 0.419 0.178 0.662 0.178s0.472-0.066 0.669-0.181l-0.006 0.003 10.976-6.333c0.399-0.233 0.663-0.66 0.663-1.148 0-0 0-0 0-0v0-12.677c-0-0.488-0.264-0.914-0.656-1.145l-0.006-0.003-10.976-6.338c-0.19-0.112-0.419-0.178-0.663-0.178s-0.473 0.066-0.669 0.181l0.006-0.003-10.973 6.338c-0.399 0.233-0.663 0.66-0.663 1.148v12.678c0 0.488 0.264 0.914 0.657 1.144l0.006 0.003 10.973 6.333z"></path>
<path fill="#4f4d3f" style="fill: var(--color10, #4f4d3f)" d="M23.106 12.978l-0.489-0.282c0.584-0.955 0.931-2.111 0.931-3.348 0-0.688-0.107-1.35-0.305-1.972l0.013 0.046s-1.27 3.56-3.823 3.442l-2.99-1.72c-0.105-0.063-0.231-0.102-0.366-0.107l-0.001-0h-0.069c-0.136 0.005-0.262 0.044-0.372 0.109l0.004-0.002-2.99 1.72c-2.553 0.118-3.823-3.442-3.823-3.442-0.186 0.577-0.293 1.24-0.293 1.928 0 1.238 0.347 2.395 0.948 3.379l-0.016-0.028-0.489 0.282c-0.241 0.143-0.4 0.401-0.4 0.697 0 0.001 0 0.002 0 0.003v-0l0.011 10.318c-0 0.002-0 0.003-0 0.005 0 0.146 0.080 0.274 0.198 0.342l0.002 0.001c0.057 0.035 0.126 0.056 0.2 0.056s0.143-0.021 0.202-0.057l3.958-2.267c0.241-0.144 0.4-0.403 0.4-0.699 0-0 0-0.001 0-0.001v0-4.818c-0-0.002-0-0.005-0-0.007 0-0.295 0.159-0.552 0.396-0.691l0.004-0.002 1.686-0.971c0.115-0.068 0.253-0.108 0.4-0.109h0c0 0 0.001 0 0.001 0 0.147 0 0.285 0.040 0.402 0.111l-0.004-0.002 1.686 0.971c0.241 0.141 0.4 0.398 0.4 0.693 0 0.003 0 0.005-0 0.008v-0 4.824c0 0 0 0 0 0 0 0.297 0.159 0.556 0.396 0.698l0.004 0.002 3.959 2.268c0.057 0.035 0.126 0.055 0.2 0.055s0.143-0.020 0.202-0.056l-0.002 0.001c0.132-0.066 0.221-0.199 0.223-0.354v-0l0.013-10.326c0-0.002 0-0.005 0-0.007 0-0.295-0.159-0.552-0.396-0.691l-0.004-0.002z"></path>
</symbol>
<symbol id="icon-redux" viewBox="0 0 32 32">
<path fill="#764abc" style="fill: var(--color1, #764abc)" d="M21.787 21.556c1.107-0.113 1.947-1.051 1.909-2.177s-0.993-2.027-2.138-2.027h-0.076c-1.184 0.038-2.1 1.013-2.061 2.177 0.038 0.563 0.267 1.051 0.611 1.389-1.298 2.515-3.283 4.354-6.261 5.893-2.023 1.051-4.123 1.426-6.223 1.164-1.718-0.225-3.054-0.976-3.894-2.215-1.222-1.839-1.336-3.828-0.305-5.818 0.725-1.426 1.871-2.477 2.596-3.003-0.153-0.488-0.382-1.314-0.496-1.914-5.536 3.941-4.963 9.271-3.283 11.785 1.26 1.877 3.818 3.040 6.643 3.040 0.763 0 1.527-0.075 2.291-0.263 4.887-0.938 8.59-3.791 10.689-8.032zM28.506 16.902c-2.901-3.341-7.177-5.18-12.064-5.18h-0.611c-0.344-0.676-1.069-1.126-1.871-1.126h-0.076c-1.183 0.038-2.099 1.013-2.061 2.177 0.038 1.126 0.992 2.027 2.138 2.027h0.076c0.84-0.037 1.565-0.563 1.871-1.276h0.687c2.901 0 5.65 0.826 8.132 2.44 1.909 1.239 3.283 2.853 4.047 4.804 0.649 1.576 0.611 3.115-0.076 4.429-1.069 1.989-2.863 3.078-5.23 3.078-1.527 0-2.978-0.45-3.741-0.788-0.42 0.375-1.183 0.976-1.718 1.351 1.642 0.751 3.321 1.163 4.925 1.163 3.665 0 6.375-1.989 7.406-3.979 1.107-2.177 1.031-5.93-1.832-9.121zM9.112 22.194c0.038 1.126 0.993 2.027 2.138 2.027h0.076c1.183-0.037 2.1-1.013 2.061-2.177-0.038-1.126-0.993-2.027-2.138-2.027h-0.076c-0.076 0-0.191 0-0.267 0.037-1.565-2.552-2.214-5.33-1.985-8.332 0.153-2.252 0.916-4.204 2.252-5.818 1.107-1.389 3.245-2.064 4.696-2.102 4.047-0.075 5.764 4.879 5.879 6.869 0.496 0.113 1.336 0.375 1.909 0.563-0.458-6.080-4.276-9.233-7.941-9.233-3.436 0-6.605 2.44-7.864 6.043-1.756 4.804-0.611 9.421 1.527 13.062-0.191 0.263-0.305 0.676-0.267 1.088v-0z"></path>
</symbol>
<symbol id="icon-vite" viewBox="0 0 32 32">
<path fill="#764abc" d="M31.854 4.736l-15.013 26.846c-0.31 0.554-1.106 0.557-1.421 0.006l-15.311-26.849c-0.343-0.601 0.171-1.329 0.852-1.208l15.029 2.686c0.043 0.008 0.093 0.013 0.144 0.013s0.102-0.005 0.151-0.014l-0.005 0.001 14.715-2.682c0.679-0.124 1.195 0.599 0.858 1.201z"></path>
<path fill="#f7ba3e" d="M23.15 0.008l-11.11 2.177c-0.181 0.036-0.318 0.189-0.329 0.375l-0 0.001-0.683 11.543c-0.016 0.272 0.234 0.483 0.499 0.422l3.093-0.714c0.289-0.067 0.551 0.188 0.491 0.479l-0.919 4.5c-0.062 0.303 0.222 0.562 0.518 0.472l1.911-0.581c0.296-0.090 0.581 0.17 0.518 0.473l-1.46 7.069c-0.091 0.442 0.497 0.683 0.742 0.304l0.164-0.253 9.053-18.067c0.152-0.303-0.11-0.647-0.442-0.583l-3.184 0.614c-0.299 0.058-0.554-0.221-0.469-0.514l2.078-7.204c0.085-0.293-0.171-0.572-0.47-0.513z"></path>
</symbol>
<symbol id="icon-axios" viewBox="0 0 215 32">
<path fill="#5a29e4" style="fill: var(--color1, #5a29e4)" d="M106.735 4.184l-7.939 6.467h5.185v21.022l2.754-2.218zM109.023 27.577l8.078-6.63h-5.33v-20.541l-2.748 1.914zM209.013 7.96c0.915 0.476 1.574 0.879 1.977 1.208l2.856-5.437c-1.428-0.879-3.148-1.666-5.162-2.361-1.977-0.696-4.119-1.043-6.425-1.043-2.197 0-4.228 0.366-6.096 1.098-1.831 0.732-3.295 1.812-4.393 3.24-1.062 1.428-1.593 3.203-1.593 5.327 0 2.38 0.75 4.21 2.251 5.491 1.538 1.245 3.881 2.27 7.029 3.075 2.526 0.659 4.558 1.263 6.096 1.812 1.574 0.513 2.361 1.373 2.361 2.581 0 1.794-1.684 2.691-5.052 2.691-1.684 0-3.277-0.201-4.778-0.604s-2.819-0.897-3.954-1.483c-1.098-0.586-1.885-1.117-2.361-1.593l-2.965 5.766c1.904 1.208 4.082 2.16 6.535 2.856s4.924 1.043 7.413 1.043c2.16 0 4.173-0.293 6.041-0.879 1.867-0.622 3.368-1.611 4.503-2.965 1.172-1.391 1.757-3.222 1.757-5.491 0-1.867-0.439-3.368-1.318-4.503-0.842-1.172-2.068-2.105-3.679-2.801-1.574-0.696-3.441-1.318-5.601-1.867-2.453-0.586-4.32-1.117-5.601-1.593-1.245-0.476-1.867-1.281-1.867-2.416 0-1.94 1.721-2.91 5.162-2.91 1.281 0 2.526 0.183 3.734 0.549 1.208 0.33 2.251 0.732 3.13 1.208z"></path>
<path fill="#5a29e4" style="fill: var(--color1, #5a29e4)" d="M151.224 31.464c-2.416 0-4.613-0.421-6.59-1.263-1.977-0.879-3.68-2.050-5.108-3.515-1.364-1.421-2.475-3.096-3.255-4.945l-0.040-0.107c-0.728-1.703-1.152-3.685-1.153-5.766v-0c0-2.014 0.403-3.954 1.208-5.821 0.841-1.926 1.99-3.567 3.402-4.939l0.004-0.004c1.442-1.438 3.155-2.605 5.055-3.419l0.105-0.040c1.977-0.842 4.137-1.263 6.48-1.263 2.416 0 4.614 0.458 6.591 1.373 1.977 0.879 3.661 2.068 5.052 3.569 1.372 1.398 2.484 3.057 3.255 4.894l0.038 0.103c0.725 1.686 1.149 3.648 1.154 5.709v0.002c0 2.014-0.403 3.954-1.208 5.821-0.861 1.919-2.007 3.557-3.405 4.941l-0.001 0.001c-1.428 1.428-3.129 2.563-5.106 3.405s-4.137 1.263-6.48 1.263zM141.777 15.923c0 1.647 0.386 3.222 1.154 4.723 0.774 1.467 1.871 2.671 3.203 3.547l0.036 0.022c1.428 0.915 3.13 1.373 5.107 1.373 2.014 0 3.716-0.476 5.107-1.428 1.392-0.988 2.453-2.215 3.185-3.679 0.732-1.501 1.099-3.039 1.099-4.613 0-1.647-0.384-3.203-1.153-4.668-0.774-1.465-1.895-2.656-3.257-3.492l-0.039-0.022c-1.391-0.915-3.056-1.373-4.996-1.373-2.014 0-3.735 0.476-5.163 1.428-1.352 0.918-2.433 2.14-3.16 3.571l-0.025 0.054c-0.69 1.325-1.096 2.894-1.098 4.557v0.001zM0 31.244l13.399-30.697h5.437l13.344 30.697h-7.029l-3.075-7.194h-11.916l-3.075 7.194zM16.145 8.619l-4.503 9.665h8.841z"></path>
<path fill="#5a29e4" style="fill: var(--color1, #5a29e4)" d="M58.142 0.547l8.457 10.873 8.457-10.873h7.194l-12.136 15.541 11.752 15.156h-7.193l-8.072-10.434-8.018 10.434h-7.304l11.807-15.156-12.192-15.541z"></path>
</symbol>
<symbol id="icon-yup" viewBox="0 0 32 32">
<path fill="#fff" d="M0 16v16h32v-32h-32v16zM30 16v14h-28v-28h28v14z"></path>
<path fill="#000000" d="M6.667 16v9.333h18.667v-18.667h-18.667v9.333z"></path>
</symbol>
<symbol id="icon-react-hook-form" viewBox="0 0 32 32">
<path d="M0 16v16h32v-32h-32v16zM25.6 6.4c1.6 1.533 1.867 3.533 1.6 11.2-0.267 9.533-0.133 9.4-11.133 9.4-6.267 0-8.8-0.267-9.6-0.933-0.933-0.733-1.133-2.333-1.133-9.6 0-11.533-0.4-11.133 10.733-11.133 6.867 0 8.733 0.2 9.533 1.067z"></path>
<path d="M7.333 8.6c-0.333 0.733-0.667 4.333-0.667 8 0 8.8-0.067 8.733 9.333 8.733 9.467 0 9.333 0.133 9.333-9.267 0-4.667-0.267-7.4-0.8-7.933s-3.4-0.8-8.667-0.8c-7.067 0-7.867 0.133-8.533 1.267zM17 10c0.2 0.333 1.333 0.667 2.4 0.667h2l-0.2 5.8-0.2 5.867h-10v-5.667c0-5.533 0.067-5.667 1.667-5.867 0.933-0.133 1.933-0.533 2.333-0.867 0.8-0.8 1.467-0.733 2 0.067z"></path>
<path d="M15 11.333c-0.2 0.333 0.2 0.667 1 0.667s1.2-0.333 1-0.667c-0.2-0.4-0.667-0.667-1-0.667s-0.8 0.267-1 0.667z"></path>
<path fill="#d87093" d="M11.6 12.267c-0.2 0.467-0.267 2.8-0.133 5.133l0.2 4.267h8.667l0.2-4.6c0.2-5.067-0.467-6.533-2.2-4.8-1.333 1.333-3.267 1.4-4.6 0.067-1.2-1.267-1.667-1.267-2.133-0.067zM17.867 15.8c-1.067 0.133-2.667 0.133-3.667 0-1.067-0.133-0.2-0.267 1.8-0.267s2.867 0.133 1.867 0.267zM19.333 19.267c0 0.333-1.467 0.6-3.333 0.6-1.8 0-3.333-0.267-3.333-0.6s1.533-0.6 3.333-0.6c1.867 0 3.333 0.267 3.333 0.6z"></path>
</symbol>
<symbol id="icon-nmailer" viewBox="0 0 47 32">
<path d="M38.4 10.259c-4.588 5.318-5.153 6.094-4.918 6.471 0.165 0.259 0.329 0.447 0.424 0.447 0.071 0 2.071-2.565 4.471-5.694 4.4-5.788 5.482-7.247 5.318-7.247-0.047 0-2.424 2.706-5.294 6.024z"></path>
<path d="M16 26.588c0 0.776-0.047 1.412-0.118 1.412-0.047 0-0.353-0.118-0.682-0.259-0.706-0.329-1.647-0.118-2.259 0.494-0.706 0.706-0.635 2.424 0.118 3.176 0.635 0.659 1.929 0.8 2.447 0.306 0.259-0.235 0.329-0.235 0.424-0.024 0.071 0.165 0.306 0.306 0.565 0.306 0.424 0 0.447-0.212 0.447-3.412 0-3.247-0.024-3.412-0.471-3.412-0.424 0-0.471 0.165-0.471 1.412zM15.694 29.082c0.353 0.565 0.353 0.682 0.047 1.247-0.494 0.847-1.576 0.847-2.071 0-0.306-0.565-0.306-0.682 0.047-1.247 0.259-0.376 0.635-0.612 0.988-0.612s0.729 0.235 0.988 0.612z"></path>
<path d="M37.647 28.612c0 2.635 0.071 3.412 0.306 3.341 0.212-0.071 0.306-1.035 0.353-3.435 0.047-2.871 0-3.341-0.306-3.341s-0.353 0.518-0.353 3.435z"></path>
<path d="M0.235 28.824v3.176h1.176v-2.424l0.024-2.4 1.529 2.424c1.388 2.141 1.624 2.4 2.235 2.4h0.682v-6.353h-0.588c-0.565 0-0.565 0.047-0.635 2.165l-0.071 2.165-1.412-2.165c-1.294-1.976-1.482-2.165-2.165-2.165h-0.776v3.176z"></path>
<path d="M35.671 25.812c-0.282 0.282-0.141 0.776 0.212 0.776 0.188 0 0.353-0.141 0.353-0.329 0-0.4-0.329-0.659-0.565-0.447z"></path>
<path d="M7.741 28.212c-0.941 0.965-0.941 2.141 0 3.106 0.918 0.894 2.047 0.918 3.059 0.071 0.612-0.494 0.729-0.776 0.729-1.624s-0.118-1.129-0.729-1.624c-1.012-0.847-2.141-0.824-3.059 0.071zM10.165 28.871c0.541 0.494 0.541 1.294-0.024 1.812-0.612 0.565-1.459 0.4-1.882-0.353-0.306-0.565-0.306-0.682 0.047-1.247 0.471-0.706 1.224-0.8 1.859-0.212z"></path>
<path d="M19.012 27.882c-1.435 0.8-1.294 3.224 0.259 3.859 1.318 0.565 3.553-0.282 2.4-0.894-0.306-0.165-0.518-0.188-0.612-0.024-0.329 0.541-2 0.118-2-0.518 0-0.094 0.753-0.188 1.671-0.188h1.694l-0.165-0.776c-0.282-1.506-1.835-2.212-3.247-1.459zM20.729 28.471c0.847 0.471 0.541 0.941-0.612 0.941-1.176 0-1.341-0.259-0.541-0.8 0.635-0.447 0.565-0.447 1.153-0.141z"></path>
<path d="M23.294 29.953c0 1.553 0.071 2.071 0.306 2 0.165-0.071 0.306-0.682 0.353-1.6 0.071-1.671 0.306-2.118 1.082-2.118 0.847 0 1.082 0.471 1.082 2.165 0 0.918 0.094 1.6 0.235 1.6s0.235-0.565 0.235-1.247c0-1.482 0.424-2.376 1.129-2.471 0.941-0.141 1.224 0.329 1.224 2.094 0 0.918 0.094 1.624 0.235 1.624 0.353 0 0.306-3.6-0.047-3.953s-1.882-0.376-2.259 0c-0.188 0.188-0.353 0.188-0.588 0-0.165-0.141-0.918-0.259-1.647-0.235l-1.341 0.047v2.094z"></path>
<path d="M31.082 28.071c-0.329 0.424-0.047 0.706 0.353 0.376 0.165-0.141 0.659-0.212 1.082-0.165 0.588 0.047 0.8 0.188 0.847 0.588 0.071 0.471-0.024 0.541-0.635 0.541-1.106 0-1.882 0.4-2.047 1.059-0.306 1.176 1.082 1.929 2.329 1.271 0.376-0.212 0.518-0.212 0.588 0 0.047 0.141 0.188 0.259 0.306 0.259s0.212-0.776 0.212-1.718c0-1.388-0.094-1.812-0.424-2.118-0.518-0.494-2.235-0.541-2.612-0.094zM33.412 30.329c0 1.082-1.435 1.553-1.976 0.659-0.212-0.353-0.165-0.494 0.188-0.776 0.706-0.494 1.788-0.447 1.788 0.118z"></path>
<path d="M35.529 29.906c0 1.6 0.071 2.118 0.306 2.047 0.188-0.071 0.306-0.776 0.353-2.141 0.047-1.718 0-2.047-0.306-2.047-0.282 0-0.353 0.376-0.353 2.141z"></path>
<path d="M40.118 28.353c-1.765 1.765 0.8 4.776 2.729 3.2 0.776-0.612 0.447-0.847-0.471-0.329-0.659 0.376-0.776 0.4-1.365 0.071-0.376-0.212-0.682-0.612-0.729-0.894-0.071-0.494 0-0.518 1.576-0.518 1.482 0 1.671-0.047 1.671-0.447 0-0.235-0.212-0.706-0.494-1.059-0.659-0.847-2.094-0.871-2.918-0.024zM42.541 28.518c0.612 0.612 0.306 0.894-1.012 0.894-1.341 0-1.553-0.188-0.918-0.8 0.424-0.447 1.529-0.494 1.929-0.094z"></path>
<path d="M44.706 29.882c0 1.247 0.094 2.118 0.235 2.118s0.235-0.612 0.235-1.365c0-1.482 0.447-2.4 1.176-2.4 0.235 0 0.518-0.118 0.588-0.235 0.212-0.329-1.129-0.306-1.482 0.047-0.212 0.212-0.282 0.212-0.282 0 0-0.165-0.094-0.282-0.235-0.282s-0.235 0.871-0.235 2.118z"></path>
</symbol>
<symbol id="icon-cloudinary" viewBox="0 0 32 32">
<path fill="#0071ce" style="fill: var(--color1, #0071ce)" d="M27.328 25.702c-0.408 0-0.787-0.259-0.921-0.668-0.166-0.509 0.111-1.056 0.62-1.223 1.844-0.603 3.035-2.219 3.035-4.117 0-2.403-1.955-4.359-4.358-4.359-0.167 0-0.347 0.013-0.565 0.042l-0.948 0.123-0.136-0.946c-0.582-4.057-4.117-7.117-8.221-7.117-3.393 0-6.414 2.031-7.695 5.175l-0.241 0.591-0.638 0.012c-2.934 0.054-5.32 2.483-5.32 5.416 0 2.14 1.243 4.093 3.166 4.973 0.487 0.223 0.701 0.798 0.478 1.285s-0.798 0.7-1.284 0.478c-2.611-1.195-4.298-3.839-4.298-6.735 0-3.769 2.904-6.927 6.593-7.315 1.7-3.554 5.262-5.817 9.24-5.817 4.761 0 8.9 3.338 9.973 7.899 3.425 0.055 6.193 2.858 6.193 6.296 0 2.709-1.756 5.103-4.37 5.959-0.1 0.033-0.202 0.048-0.302 0.048z"></path>
<path fill="#dc8327" style="fill: var(--color2, #dc8327)" d="M12.502 26.122c-0-0-0-0-0.001-0s-0.001-0-0.001-0h-0l-0.001-0c0 0-0 0-0-0h-0l-0-0c0-0-0-0-0-0l-0-0h-0l-0-0c0 0-0-0-0-0s-0.001-0-0.001-0l-0.001-0.001c-0.001-0-0.001-0-0.001-0s-0-0-0.001-0l-0-0c0 0-0-0-0.001-0l-0-0c-0-0-0.001-0-0.001-0s-0.001-0-0.001-0-0-0-0.001-0h-0c-0-0-0.001-0-0.001-0s-0.001-0-0.001-0h-0l-0.001-0c-0 0-0-0-0-0h-0c-0.015-0.005-0.031-0.009-0.048-0.009h-0.002c0 0 0 0-0 0h-0.001l-0-0h-0.004c-0.419 0-0.762-0.341-0.764-0.759v-8.516h0.653c0.099 0.004 0.167-0.072 0.167-0.164 0-0.069-0.042-0.127-0.102-0.152l-3.131-2.161c-0.056-0.039-0.13-0.039-0.186 0l-3.156 2.178c-0.059 0.041-0.085 0.115-0.064 0.184s0.085 0.115 0.157 0.115h0.653l0 8.518c0.003 0.589 0.476 1.070 1.078 1.085 0.007 0.001 0.013 0.001 0.020 0.001h4.678c0.043-0.001 0.082-0.018 0.111-0.046 0 0 0 0 0-0s0.001-0.001 0.001-0.001 0.001-0 0.001-0.001l0.002-0.002c0.001-0 0-0 0.001-0s0 0 0-0l0-0c0 0 0 0 0-0 0.028-0.029 0.046-0.069 0.046-0.113v-0.003c-0.001-0.065-0.040-0.121-0.097-0.147z"></path>
<path fill="#f4b21b" style="fill: var(--color3, #f4b21b)" d="M19.266 26.122c0 0-0-0-0-0s-0-0-0.001-0h-0l-0-0h-0l-0-0c0-0-0-0-0-0l-0-0h-0c-0 0-0-0-0-0s-0-0-0-0l-0-0-0-0h-0l-0-0c-0-0-0-0-0-0s-0-0-0.001-0l-0-0c0 0-0 0-0-0s-0.001-0-0.001-0-0.001-0-0.001-0-0-0-0-0-0 0-0-0-0 0-0-0-0-0-0-0-0 0-0-0-0-0-0-0l-0-0h-0c-0.015-0.005-0.031-0.009-0.048-0.009h-0.002l-0-0h-0.005c-0.419 0-0.761-0.341-0.764-0.759v-6.609h0.652c0.002-0 0.004-0 0.007 0 0.091 0 0.164-0.073 0.164-0.164 0-0.069-0.042-0.127-0.102-0.152l-3.132-2.161c-0.056-0.039-0.13-0.039-0.186 0l-3.155 2.178c-0.059 0.041-0.085 0.115-0.063 0.184s0.085 0.115 0.157 0.115h0.65l0.001 6.611c0.003 0.589 0.477 1.070 1.079 1.085 0.007 0.001 0.013 0.001 0.020 0.001h4.678c0.043-0.001 0.082-0.018 0.111-0.046 0 0 0 0 0-0s0.002-0.001 0.001-0.001 0-0 0.001-0.001l0.001-0.001c0 0 0 0 0-0l0-0c0 0 0-0 0-0s0-0 0-0 0 0 0-0 0 0 0-0 0 0 0-0c0.028-0.029 0.046-0.069 0.046-0.113v-0.003c-0.002-0.064-0.041-0.121-0.097-0.147z"></path>
<path fill="#f2d864" style="fill: var(--color4, #f2d864)" d="M26.047 26.122l-0-0c-0 0-0-0-0.001-0h-0l-0-0c-0 0-0 0-0-0h-0l-0-0c0 0-0 0-0-0h-0l-0-0c-0 0-0-0-0-0s-0-0-0-0l-0-0h-0l-0-0c-0.001-0-0-0-0-0s-0-0-0.001-0l-0-0c0-0-0-0-0-0s-0 0-0-0-0.001-0-0.001-0-0.001-0-0.001-0l-0-0c0 0-0 0-0-0l-0-0c-0.001-0-0.001-0-0-0-0.001 0-0.001 0-0-0s-0-0-0-0-0-0-0-0h-0c-0.015-0.005-0.031-0.009-0.048-0.009h-0.002c-0-0-0-0-0-0h-0.003c0 0 0 0-0 0h-0.001c-0.419 0-0.761-0.341-0.764-0.759v-4.702h0.654c0.092-0.002 0.167-0.072 0.167-0.164 0-0.069-0.042-0.127-0.102-0.152l-3.132-2.161c-0.056-0.039-0.13-0.039-0.186 0l-3.156 2.178c-0.059 0.041-0.085 0.115-0.064 0.184s0.085 0.115 0.157 0.115h0.651l0 4.705c0.003 0.589 0.477 1.070 1.079 1.085 0.007 0.001 0.013 0.001 0.020 0.001h4.678c0.043-0.001 0.082-0.018 0.111-0.046l0-0c0-0 0.001-0.001 0.001-0.001s0-0 0.001-0.001l0.002-0.002c0.001-0 0-0 0-0s0 0 0-0l0-0c0 0 0 0 0-0 0.028-0.029 0.046-0.069 0.046-0.113v-0.003c-0.001-0.064-0.040-0.121-0.097-0.147z"></path>
</symbol>
</defs>
</svg>
